<?xml version="1.0" encoding="UTF-8"?>
<svg xmlns="http://www.w3.org/2000/svg" xmlns:xlink="http://www.w3.org/1999/xlink" width="32px" height="32px" viewBox="0 0 32 32" version="1.1">
<g id="surface1">
<path style=" stroke:none;fill-rule:evenodd;fill:rgb(6.666667%,6.666667%,6.27451%);fill-opacity:1;" d="M -0.03125 -0.03125 C 8.675781 -0.03125 17.386719 -0.03125 26.09375 -0.03125 C 26.003906 0.0664062 25.902344 0.148438 25.78125 0.21875 C 25.851562 0.308594 25.914062 0.402344 25.96875 0.5 C 25.871094 0.558594 25.789062 0.632812 25.71875 0.71875 C 25.792969 0.824219 25.863281 0.925781 25.9375 1.03125 C 25.964844 0.800781 26.015625 0.789062 26.09375 1 C 26.050781 1.042969 26.011719 1.082031 25.96875 1.125 C 26.164062 1.140625 26.351562 1.191406 26.53125 1.28125 C 26.605469 1.195312 26.667969 1.207031 26.71875 1.3125 C 26.621094 1.429688 26.515625 1.484375 26.40625 1.46875 C 26.449219 1.566406 26.523438 1.628906 26.625 1.65625 C 26.695312 1.597656 26.757812 1.597656 26.8125 1.65625 C 26.875 1.507812 26.914062 1.527344 26.9375 1.71875 C 27.007812 1.535156 27.132812 1.410156 27.3125 1.34375 C 27.332031 1.363281 27.355469 1.386719 27.375 1.40625 C 27.4375 1.324219 27.5 1.238281 27.5625 1.15625 C 27.582031 1.269531 27.625 1.289062 27.6875 1.21875 C 27.726562 1.148438 27.78125 1.085938 27.84375 1.03125 C 27.8125 0.988281 27.769531 0.957031 27.71875 0.9375 C 27.835938 0.808594 27.980469 0.722656 28.15625 0.6875 C 28.019531 0.675781 27.894531 0.636719 27.78125 0.5625 C 28.011719 0.535156 28.09375 0.417969 28.03125 0.21875 C 28.050781 0.167969 28.082031 0.125 28.125 0.09375 C 28.144531 0.199219 28.167969 0.300781 28.1875 0.40625 C 28.300781 0.335938 28.351562 0.378906 28.34375 0.53125 C 28.410156 0.539062 28.472656 0.53125 28.53125 0.5 C 28.484375 0.433594 28.492188 0.359375 28.5625 0.28125 C 28.605469 0.453125 28.699219 0.492188 28.84375 0.40625 C 28.71875 0.359375 28.667969 0.273438 28.6875 0.15625 C 28.996094 0.242188 29.257812 0.378906 29.46875 0.5625 C 29.289062 0.585938 29.132812 0.535156 29 0.40625 C 28.960938 0.554688 28.929688 0.679688 28.90625 0.78125 C 28.851562 0.730469 28.828125 0.667969 28.84375 0.59375 C 28.769531 0.578125 28.707031 0.601562 28.65625 0.65625 C 28.699219 0.675781 28.738281 0.699219 28.78125 0.71875 C 28.761719 0.78125 28.71875 0.824219 28.65625 0.84375 C 28.605469 0.78125 28.550781 0.71875 28.5 0.65625 C 28.351562 0.78125 28.195312 0.832031 28.03125 0.8125 C 28.296875 1.003906 28.277344 1.085938 27.96875 1.0625 C 28.050781 0.949219 28.042969 0.917969 27.9375 0.96875 C 27.910156 1.175781 27.921875 1.363281 27.96875 1.53125 C 27.898438 1.601562 27.847656 1.578125 27.8125 1.46875 C 27.773438 1.558594 27.71875 1.644531 27.65625 1.71875 C 27.765625 1.726562 27.890625 1.734375 28.03125 1.75 C 27.980469 1.800781 27.925781 1.855469 27.875 1.90625 C 27.832031 1.847656 27.777344 1.835938 27.71875 1.875 C 27.769531 1.933594 27.832031 1.972656 27.90625 2 C 27.859375 2.273438 27.785156 2.28125 27.6875 2.03125 C 27.460938 2.109375 27.429688 2.226562 27.59375 2.375 C 27.535156 2.398438 27.484375 2.429688 27.4375 2.46875 C 27.445312 2.347656 27.382812 2.242188 27.25 2.15625 C 27.195312 2.296875 27.226562 2.410156 27.34375 2.5 C 27.214844 2.589844 27.214844 2.691406 27.34375 2.8125 C 27.230469 2.972656 27.273438 3.078125 27.46875 3.125 C 27.386719 3.167969 27.386719 3.207031 27.46875 3.25 C 27.386719 3.25 27.300781 3.25 27.21875 3.25 C 27.292969 3.320312 27.292969 3.390625 27.21875 3.46875 C 27.3125 3.621094 27.417969 3.621094 27.53125 3.46875 C 27.585938 3.417969 27.609375 3.355469 27.59375 3.28125 C 27.660156 3.273438 27.722656 3.28125 27.78125 3.3125 C 27.726562 3.480469 27.664062 3.648438 27.59375 3.8125 C 27.660156 3.84375 27.722656 3.832031 27.78125 3.78125 C 27.832031 3.800781 27.875 3.832031 27.90625 3.875 C 27.835938 3.921875 27.835938 3.972656 27.90625 4.03125 C 27.777344 4.09375 27.757812 4.175781 27.84375 4.28125 C 27.703125 4.40625 27.734375 4.425781 27.9375 4.34375 C 28.023438 4.578125 28.085938 4.578125 28.125 4.34375 C 28.296875 4.398438 28.304688 4.449219 28.15625 4.5 C 28.320312 4.519531 28.363281 4.59375 28.28125 4.71875 C 28.335938 4.765625 28.398438 4.796875 28.46875 4.8125 C 28.285156 4.925781 28.097656 4.964844 27.90625 4.9375 C 27.945312 4.984375 27.976562 5.035156 28 5.09375 C 28.160156 5.046875 28.339844 5.027344 28.53125 5.03125 C 28.523438 4.964844 28.53125 4.902344 28.5625 4.84375 C 28.667969 4.78125 28.769531 4.71875 28.875 4.65625 C 28.945312 4.734375 28.953125 4.808594 28.90625 4.875 C 28.992188 4.976562 29.09375 5.050781 29.21875 5.09375 C 29.285156 5.214844 29.316406 5.339844 29.3125 5.46875 C 29.148438 5.453125 29.023438 5.347656 28.9375 5.15625 C 28.875 5.273438 28.835938 5.398438 28.8125 5.53125 C 28.34375 5.269531 28.3125 5.300781 28.71875 5.625 C 28.515625 5.609375 28.308594 5.621094 28.09375 5.65625 C 28.058594 5.804688 28.007812 5.953125 27.9375 6.09375 C 27.894531 6.175781 27.855469 6.175781 27.8125 6.09375 C 27.730469 6.199219 27.644531 6.300781 27.5625 6.40625 C 27.421875 6.257812 27.328125 6.300781 27.28125 6.53125 C 27.324219 6.550781 27.363281 6.574219 27.40625 6.59375 C 27.488281 6.535156 27.574219 6.503906 27.65625 6.5 C 27.59375 6.566406 27.582031 6.636719 27.625 6.71875 C 27.722656 6.636719 27.792969 6.65625 27.84375 6.78125 C 27.628906 7.167969 27.683594 7.207031 28 6.90625 C 28.019531 6.925781 28.042969 6.949219 28.0625 6.96875 C 28.125 6.886719 28.1875 6.800781 28.25 6.71875 C 28.320312 6.796875 28.328125 6.871094 28.28125 6.9375 C 28.382812 6.980469 28.453125 6.949219 28.5 6.84375 C 28.546875 6.882812 28.597656 6.914062 28.65625 6.9375 C 28.628906 6.996094 28.609375 7.046875 28.59375 7.09375 C 28.515625 7.035156 28.429688 7.023438 28.34375 7.0625 C 28.417969 7.132812 28.417969 7.203125 28.34375 7.28125 C 28.457031 7.296875 28.582031 7.308594 28.71875 7.3125 C 28.667969 7.363281 28.613281 7.417969 28.5625 7.46875 C 28.519531 7.410156 28.464844 7.398438 28.40625 7.4375 C 28.582031 7.503906 28.613281 7.597656 28.5 7.71875 C 28.359375 7.582031 28.246094 7.613281 28.15625 7.8125 C 28.179688 7.871094 28.222656 7.914062 28.28125 7.9375 C 28.128906 8.070312 28.027344 8.238281 27.96875 8.4375 C 28 8.496094 28.042969 8.550781 28.09375 8.59375 C 28.070312 8.6875 28.058594 8.792969 28.0625 8.90625 C 27.976562 8.859375 27.882812 8.828125 27.78125 8.8125 C 27.910156 8.617188 27.871094 8.605469 27.65625 8.78125 C 27.621094 8.769531 27.589844 8.746094 27.5625 8.71875 C 27.539062 8.804688 27.507812 8.886719 27.46875 8.96875 C 27.5 9.011719 27.542969 9.042969 27.59375 9.0625 C 27.523438 9.109375 27.523438 9.160156 27.59375 9.21875 C 27.5625 9.261719 27.519531 9.292969 27.46875 9.3125 C 27.527344 9.335938 27.578125 9.367188 27.625 9.40625 C 27.695312 9.3125 27.746094 9.207031 27.78125 9.09375 C 27.824219 9.011719 27.863281 9.011719 27.90625 9.09375 C 27.953125 9.222656 27.953125 9.367188 27.90625 9.53125 C 28.023438 9.726562 28.125 9.925781 28.21875 10.125 C 28.144531 10.15625 28.09375 10.207031 28.0625 10.28125 C 28.042969 10.261719 28.019531 10.238281 28 10.21875 C 27.941406 10.285156 27.886719 10.359375 27.84375 10.4375 C 27.921875 10.464844 27.972656 10.433594 28 10.34375 C 28.125 10.46875 28.117188 10.570312 27.96875 10.65625 C 28.28125 10.710938 28.300781 10.867188 28.03125 11.125 C 27.949219 11.167969 27.863281 11.207031 27.78125 11.25 C 27.921875 11.363281 28.035156 11.332031 28.125 11.15625 C 28.152344 11.421875 28.289062 11.609375 28.53125 11.71875 C 28.578125 11.664062 28.609375 11.601562 28.625 11.53125 C 28.777344 11.753906 28.972656 11.921875 29.21875 12.03125 C 29.164062 12.078125 29.101562 12.109375 29.03125 12.125 C 29.234375 12.234375 29.253906 12.359375 29.09375 12.5 C 29.207031 12.519531 29.226562 12.5625 29.15625 12.625 C 29.308594 12.757812 29.308594 12.882812 29.15625 13 C 29.199219 13.0625 29.238281 13.125 29.28125 13.1875 C 29.15625 13.1875 29.03125 13.167969 28.90625 13.125 C 28.96875 12.972656 28.917969 12.855469 28.75 12.78125 C 28.730469 12.878906 28.691406 12.960938 28.625 13.03125 C 28.582031 13.136719 28.582031 13.238281 28.625 13.34375 C 28.734375 13.417969 28.796875 13.523438 28.8125 13.65625 C 28.996094 13.550781 29.007812 13.4375 28.84375 13.3125 C 29.023438 13.199219 29.179688 13.230469 29.3125 13.40625 C 29.332031 13.355469 29.363281 13.3125 29.40625 13.28125 C 29.457031 13.378906 29.488281 13.484375 29.5 13.59375 C 29.59375 13.546875 29.601562 13.496094 29.53125 13.4375 C 29.601562 13.390625 29.664062 13.402344 29.71875 13.46875 C 29.628906 13.554688 29.585938 13.65625 29.59375 13.78125 C 29.675781 13.769531 29.75 13.792969 29.8125 13.84375 C 29.855469 13.789062 29.90625 13.75 29.96875 13.71875 C 29.988281 13.8125 29.988281 13.894531 29.96875 13.96875 C 30.03125 13.925781 30.09375 13.886719 30.15625 13.84375 C 30.257812 13.972656 30.371094 14.011719 30.5 13.96875 C 30.515625 14.089844 30.546875 14.203125 30.59375 14.3125 C 30.46875 14.367188 30.46875 14.449219 30.59375 14.5625 C 30.671875 14.632812 30.746094 14.640625 30.8125 14.59375 C 30.828125 14.714844 30.859375 14.828125 30.90625 14.9375 C 30.886719 15.046875 30.824219 15.160156 30.71875 15.28125 C 30.738281 15.519531 30.863281 15.65625 31.09375 15.6875 C 30.988281 15.707031 30.886719 15.730469 30.78125 15.75 C 30.863281 15.894531 30.863281 16.042969 30.78125 16.1875 C 30.878906 16.207031 30.960938 16.175781 31.03125 16.09375 C 31.082031 16.140625 31.121094 16.191406 31.15625 16.25 C 31.050781 16.269531 30.949219 16.292969 30.84375 16.3125 C 30.863281 16.332031 30.886719 16.355469 30.90625 16.375 C 30.84375 16.417969 30.78125 16.417969 30.71875 16.375 C 30.738281 16.355469 30.761719 16.332031 30.78125 16.3125 C 30.589844 16.289062 30.570312 16.25 30.71875 16.1875 C 30.640625 16.117188 30.578125 16.03125 30.53125 15.9375 C 30.394531 15.90625 30.34375 15.957031 30.375 16.09375 C 30.417969 16.035156 30.472656 16.023438 30.53125 16.0625 C 30.460938 16.109375 30.460938 16.160156 30.53125 16.21875 C 30.300781 16.265625 30.261719 16.359375 30.40625 16.5 C 30.3125 16.671875 30.210938 16.839844 30.09375 17 C 30.207031 17.074219 30.332031 17.113281 30.46875 17.125 C 30.429688 17.171875 30.398438 17.222656 30.375 17.28125 C 30.265625 17.191406 30.140625 17.128906 30 17.09375 C 29.96875 17.160156 29.980469 17.222656 30.03125 17.28125 C 29.976562 17.328125 29.914062 17.359375 29.84375 17.375 C 29.925781 17.519531 29.964844 17.65625 29.96875 17.78125 C 30.015625 17.703125 30.046875 17.621094 30.0625 17.53125 C 30.171875 17.6875 30.285156 17.6875 30.40625 17.53125 C 30.449219 17.542969 30.488281 17.550781 30.53125 17.5625 C 30.429688 17.628906 30.367188 17.722656 30.34375 17.84375 C 30.511719 17.90625 30.511719 17.96875 30.34375 18.03125 C 30.261719 17.980469 30.1875 17.917969 30.125 17.84375 C 30.042969 18.070312 29.886719 18.140625 29.65625 18.0625 C 29.8125 18.011719 29.824219 17.9375 29.6875 17.84375 C 29.667969 17.957031 29.625 17.976562 29.5625 17.90625 C 29.566406 17.742188 29.566406 17.574219 29.5625 17.40625 C 29.515625 17.335938 29.464844 17.335938 29.40625 17.40625 C 29.339844 17.460938 29.339844 17.523438 29.40625 17.59375 C 29.332031 17.570312 29.277344 17.609375 29.25 17.71875 C 29.074219 17.636719 29.082031 17.542969 29.28125 17.4375 C 29.15625 17.394531 29.054688 17.425781 28.96875 17.53125 C 28.804688 17.464844 28.753906 17.363281 28.8125 17.21875 C 28.707031 17.304688 28.695312 17.398438 28.78125 17.5 C 28.640625 17.621094 28.515625 17.757812 28.40625 17.90625 C 28.589844 18.074219 28.570312 18.117188 28.34375 18.03125 C 28.28125 18.0625 28.230469 18.101562 28.1875 18.15625 C 28.125 18.058594 28.074219 17.953125 28.03125 17.84375 C 28.054688 17.949219 28.011719 18.054688 27.90625 18.15625 C 28.121094 18.222656 28.339844 18.222656 28.5625 18.15625 C 28.6875 18.152344 28.78125 18.207031 28.84375 18.3125 C 28.734375 18.320312 28.628906 18.289062 28.53125 18.21875 C 28.382812 18.289062 28.265625 18.390625 28.1875 18.53125 C 28.003906 18.535156 27.828125 18.472656 27.65625 18.34375 C 27.636719 18.355469 27.613281 18.363281 27.59375 18.375 C 27.675781 18.5 27.738281 18.636719 27.78125 18.78125 C 27.695312 18.800781 27.589844 18.800781 27.46875 18.78125 C 27.46875 18.917969 27.511719 19 27.59375 19.03125 C 27.582031 19.074219 27.574219 19.113281 27.5625 19.15625 C 27.523438 19.082031 27.492188 19.082031 27.46875 19.15625 C 27.574219 19.234375 27.648438 19.339844 27.6875 19.46875 C 27.726562 19.394531 27.757812 19.394531 27.78125 19.46875 C 27.71875 19.550781 27.65625 19.636719 27.59375 19.71875 C 27.511719 19.453125 27.40625 19.472656 27.28125 19.78125 C 27.425781 19.804688 27.558594 19.804688 27.6875 19.78125 C 27.71875 19.8125 27.75 19.84375 27.78125 19.875 C 27.636719 19.960938 27.488281 19.980469 27.34375 19.9375 C 27.34375 20.1875 27.34375 20.417969 27.34375 20.625 C 27.1875 20.707031 27.1875 20.78125 27.34375 20.84375 C 27.402344 20.792969 27.464844 20.78125 27.53125 20.8125 C 27.441406 20.949219 27.339844 21.074219 27.21875 21.1875 C 27.363281 21.296875 27.511719 21.398438 27.65625 21.5 C 27.609375 21.59375 27.558594 21.601562 27.5 21.53125 C 27.46875 21.589844 27.460938 21.652344 27.46875 21.71875 C 27.535156 21.710938 27.597656 21.71875 27.65625 21.75 C 27.609375 21.816406 27.617188 21.890625 27.6875 21.96875 C 27.714844 21.804688 27.808594 21.722656 27.96875 21.71875 C 27.957031 21.996094 27.957031 22.214844 27.96875 22.375 C 28.140625 22.484375 28.328125 22.546875 28.53125 22.5625 C 28.476562 22.605469 28.4375 22.65625 28.40625 22.71875 C 28.492188 22.78125 28.53125 22.867188 28.53125 22.96875 C 28.464844 22.960938 28.402344 22.96875 28.34375 23 C 28.363281 23.019531 28.386719 23.042969 28.40625 23.0625 C 28.488281 23.054688 28.5625 23.0625 28.625 23.09375 C 28.644531 23.050781 28.667969 23.011719 28.6875 22.96875 C 28.816406 23.089844 28.949219 23.203125 29.09375 23.3125 C 29.042969 23.417969 29.074219 23.425781 29.1875 23.34375 C 29.1875 23.425781 29.1875 23.511719 29.1875 23.59375 C 29.207031 23.574219 29.230469 23.550781 29.25 23.53125 C 29.296875 23.617188 29.371094 23.667969 29.46875 23.6875 C 29.398438 23.746094 29.40625 23.796875 29.5 23.84375 C 29.519531 23.792969 29.550781 23.75 29.59375 23.71875 C 29.691406 23.796875 29.785156 23.796875 29.875 23.71875 C 29.917969 23.761719 29.957031 23.800781 30 23.84375 C 30.167969 23.699219 30.332031 23.550781 30.5 23.40625 C 30.53125 23.46875 30.5625 23.53125 30.59375 23.59375 C 30.519531 23.769531 30.519531 23.945312 30.59375 24.125 C 30.492188 24.160156 30.410156 24.128906 30.34375 24.03125 C 30.265625 24.125 30.289062 24.199219 30.40625 24.25 C 30.332031 24.277344 30.269531 24.316406 30.21875 24.375 C 30.332031 24.386719 30.414062 24.4375 30.46875 24.53125 C 30.433594 24.652344 30.421875 24.777344 30.4375 24.90625 C 30.410156 25.015625 30.355469 25.054688 30.28125 25.03125 C 30.335938 25.078125 30.398438 25.109375 30.46875 25.125 C 30.226562 25.210938 30.226562 25.28125 30.46875 25.34375 C 30.441406 25.40625 30.398438 25.40625 30.34375 25.34375 C 30.269531 25.390625 30.269531 25.445312 30.34375 25.5 C 30.148438 25.609375 30.035156 25.765625 30 25.96875 C 30.105469 25.917969 30.113281 25.949219 30.03125 26.0625 C 29.917969 26.078125 29.824219 26.132812 29.75 26.21875 C 29.722656 26.144531 29.683594 26.082031 29.625 26.03125 C 29.542969 26.113281 29.457031 26.113281 29.375 26.03125 C 29.296875 26.132812 29.226562 26.234375 29.15625 26.34375 C 29.113281 26.324219 29.074219 26.300781 29.03125 26.28125 C 29.054688 26.355469 29.015625 26.410156 28.90625 26.4375 C 29.011719 26.457031 29.113281 26.480469 29.21875 26.5 C 29.027344 26.523438 29.007812 26.5625 29.15625 26.625 C 29.09375 26.6875 29.03125 26.75 28.96875 26.8125 C 29.070312 26.773438 29.152344 26.792969 29.21875 26.875 C 29.0625 26.980469 29.085938 27.0625 29.28125 27.125 C 29.207031 27.195312 29.207031 27.265625 29.28125 27.34375 C 29.191406 27.351562 29.089844 27.363281 28.96875 27.375 C 29.039062 27.441406 29.121094 27.480469 29.21875 27.5 C 29.136719 27.5625 29.050781 27.625 28.96875 27.6875 C 29.035156 27.71875 29.097656 27.707031 29.15625 27.65625 C 29.21875 27.675781 29.261719 27.71875 29.28125 27.78125 C 29.183594 27.746094 29.101562 27.789062 29.03125 27.90625 C 29.273438 27.933594 29.3125 28.058594 29.15625 28.28125 C 29.1875 28.324219 29.230469 28.355469 29.28125 28.375 C 29.230469 28.394531 29.1875 28.425781 29.15625 28.46875 C 29.21875 28.59375 29.28125 28.71875 29.34375 28.84375 C 29.300781 28.863281 29.261719 28.886719 29.21875 28.90625 C 29.304688 29.011719 29.328125 29.113281 29.28125 29.21875 C 29.398438 29.261719 29.417969 29.324219 29.34375 29.40625 C 29.40625 29.5625 29.457031 29.5625 29.5 29.40625 C 29.53125 29.464844 29.539062 29.527344 29.53125 29.59375 C 29.464844 29.585938 29.402344 29.59375 29.34375 29.625 C 29.367188 29.738281 29.367188 29.84375 29.34375 29.9375 C 29.386719 29.957031 29.425781 29.980469 29.46875 30 C 29.386719 30.0625 29.386719 30.125 29.46875 30.1875 C 29.226562 30.148438 29.1875 30.21875 29.34375 30.40625 C 29.316406 30.480469 29.277344 30.542969 29.21875 30.59375 C 29.328125 30.601562 29.453125 30.609375 29.59375 30.625 C 29.441406 30.671875 29.292969 30.734375 29.15625 30.8125 C 29.285156 30.832031 29.304688 30.886719 29.21875 30.96875 C 29.261719 31.03125 29.300781 31.09375 29.34375 31.15625 C 29.210938 31.230469 29.210938 31.324219 29.34375 31.4375 C 29.148438 31.492188 29.128906 31.5625 29.28125 31.65625 C 29.125 31.738281 29.125 31.8125 29.28125 31.875 C 29.222656 31.890625 29.183594 31.921875 29.15625 31.96875 C 19.425781 31.96875 9.699219 31.96875 -0.03125 31.96875 C -0.03125 21.300781 -0.03125 10.636719 -0.03125 -0.03125 Z M -0.03125 -0.03125 "/>
<path style=" stroke:none;fill-rule:evenodd;fill:rgb(61.176473%,50.196081%,29.803923%);fill-opacity:1;" d="M 11.40625 3.65625 C 11.113281 3.699219 10.824219 3.738281 10.53125 3.78125 C 10.496094 3.777344 10.476562 3.757812 10.46875 3.71875 C 10.777344 3.65625 11.089844 3.636719 11.40625 3.65625 Z M 11.40625 3.65625 "/>
<path style=" stroke:none;fill-rule:evenodd;fill:rgb(94.117647%,79.607844%,46.666667%);fill-opacity:1;" d="M 10.84375 8.84375 C 10.855469 10.113281 10.84375 11.386719 10.8125 12.65625 C 10.792969 12.699219 10.769531 12.738281 10.75 12.78125 C 10.726562 12.765625 10.714844 12.746094 10.71875 12.71875 C 10.789062 9.847656 10.800781 6.972656 10.75 4.09375 C 10.71875 4.03125 10.6875 3.96875 10.65625 3.90625 C 10.652344 3.878906 10.664062 3.859375 10.6875 3.84375 C 10.746094 3.894531 10.785156 3.957031 10.8125 4.03125 C 10.84375 5.636719 10.855469 7.238281 10.84375 8.84375 Z M 10.84375 8.84375 "/>
<path style=" stroke:none;fill-rule:evenodd;fill:rgb(79.607844%,64.313728%,38.431373%);fill-opacity:1;" d="M 17.46875 4.21875 C 17.449219 4.140625 17.417969 4.140625 17.375 4.21875 C 17.34375 6.28125 17.332031 8.34375 17.34375 10.40625 C 17.339844 10.441406 17.320312 10.460938 17.28125 10.46875 C 17.226562 10.417969 17.203125 10.355469 17.21875 10.28125 C 17.238281 9.671875 17.21875 9.070312 17.15625 8.46875 C 15.175781 8.394531 13.199219 8.386719 11.21875 8.4375 C 13.1875 8.449219 15.144531 8.480469 17.09375 8.53125 C 15.136719 8.53125 13.175781 8.53125 11.21875 8.53125 C 11.21875 9.84375 11.21875 11.15625 11.21875 12.46875 C 11.167969 11.167969 11.136719 9.855469 11.125 8.53125 C 11.105469 9.90625 11.082031 11.28125 11.0625 12.65625 C 11.042969 12.511719 11.019531 12.363281 11 12.21875 C 10.964844 12.351562 10.933594 12.359375 10.90625 12.25 C 10.9375 12.191406 10.980469 12.136719 11.03125 12.09375 C 10.929688 11.011719 10.867188 9.925781 10.84375 8.84375 C 10.855469 7.238281 10.84375 5.636719 10.8125 4.03125 C 10.785156 3.957031 10.746094 3.894531 10.6875 3.84375 C 10.664062 3.859375 10.652344 3.878906 10.65625 3.90625 C 10.59375 3.886719 10.550781 3.84375 10.53125 3.78125 C 10.824219 3.738281 11.113281 3.699219 11.40625 3.65625 C 11.460938 3.648438 11.503906 3.667969 11.53125 3.71875 C 11.488281 3.78125 11.445312 3.84375 11.40625 3.90625 C 11.332031 3.96875 11.292969 4.054688 11.28125 4.15625 C 11.261719 4.15625 11.238281 4.15625 11.21875 4.15625 C 11.226562 4.039062 11.195312 4.019531 11.125 4.09375 C 11.074219 5.449219 11.082031 6.800781 11.15625 8.15625 C 13.089844 8.230469 15.027344 8.238281 16.96875 8.1875 C 17.046875 8.167969 17.121094 8.136719 17.1875 8.09375 C 17.230469 6.84375 17.230469 5.59375 17.1875 4.34375 C 17.144531 4.261719 17.105469 4.175781 17.0625 4.09375 C 17.039062 4.109375 17.027344 4.128906 17.03125 4.15625 C 16.84375 4 16.632812 3.875 16.40625 3.78125 C 16.660156 3.667969 16.878906 3.503906 17.0625 3.28125 C 17.128906 3.078125 17.167969 2.871094 17.1875 2.65625 C 17.214844 2.628906 17.246094 2.605469 17.28125 2.59375 C 17.28125 3.207031 17.570312 3.589844 18.15625 3.75 C 17.882812 3.847656 17.652344 4.003906 17.46875 4.21875 Z M 17.46875 4.21875 "/>
<path style=" stroke:none;fill-rule:evenodd;fill:rgb(90.588236%,75.294119%,44.705883%);fill-opacity:1;" d="M 11.21875 4.15625 C 11.21875 5.46875 11.21875 6.78125 11.21875 8.09375 C 13.175781 8.09375 15.136719 8.09375 17.09375 8.09375 C 17.113281 6.8125 17.09375 5.542969 17.03125 4.28125 C 17.03125 4.238281 17.03125 4.199219 17.03125 4.15625 C 17.027344 4.128906 17.039062 4.109375 17.0625 4.09375 C 17.105469 4.175781 17.144531 4.261719 17.1875 4.34375 C 17.230469 5.59375 17.230469 6.84375 17.1875 8.09375 C 17.121094 8.136719 17.046875 8.167969 16.96875 8.1875 C 15.027344 8.238281 13.089844 8.230469 11.15625 8.15625 C 11.082031 6.800781 11.074219 5.449219 11.125 4.09375 C 11.195312 4.019531 11.226562 4.039062 11.21875 4.15625 Z M 11.21875 4.15625 "/>
<path style=" stroke:none;fill-rule:evenodd;fill:rgb(23.137255%,19.607843%,13.725491%);fill-opacity:1;" d="M 11.21875 4.15625 C 11.238281 4.15625 11.261719 4.15625 11.28125 4.15625 C 11.28125 5.449219 11.28125 6.738281 11.28125 8.03125 C 13.199219 8.03125 15.113281 8.03125 17.03125 8.03125 C 17.03125 6.78125 17.03125 5.53125 17.03125 4.28125 C 17.09375 5.542969 17.113281 6.8125 17.09375 8.09375 C 15.136719 8.09375 13.175781 8.09375 11.21875 8.09375 C 11.21875 6.78125 11.21875 5.46875 11.21875 4.15625 Z M 11.21875 4.15625 "/>
<path style=" stroke:none;fill-rule:evenodd;fill:rgb(0%,0%,0.392157%);fill-opacity:1;" d="M 11.40625 3.90625 C 11.464844 3.984375 11.457031 4.066406 11.375 4.15625 C 11.34375 5.425781 11.332031 6.699219 11.34375 7.96875 C 13.21875 7.96875 15.09375 7.96875 16.96875 7.96875 C 16.949219 6.730469 16.96875 5.5 17.03125 4.28125 C 17.03125 5.53125 17.03125 6.78125 17.03125 8.03125 C 15.113281 8.03125 13.199219 8.03125 11.28125 8.03125 C 11.28125 6.738281 11.28125 5.449219 11.28125 4.15625 C 11.292969 4.054688 11.332031 3.96875 11.40625 3.90625 Z M 11.40625 3.90625 "/>
<path style=" stroke:none;fill-rule:evenodd;fill:rgb(96.862745%,81.176472%,49.019608%);fill-opacity:1;" d="M 17.46875 4.21875 C 17.46875 4.238281 17.46875 4.261719 17.46875 4.28125 C 17.425781 6.324219 17.386719 8.363281 17.34375 10.40625 C 17.332031 8.34375 17.34375 6.28125 17.375 4.21875 C 17.417969 4.140625 17.449219 4.140625 17.46875 4.21875 Z M 17.46875 4.21875 "/>
<path style=" stroke:none;fill-rule:evenodd;fill:rgb(82.352942%,67.843139%,40.000001%);fill-opacity:1;" d="M 22.71875 8.78125 C 22.796875 9.039062 22.960938 9.234375 23.21875 9.375 C 22.976562 9.476562 22.808594 9.652344 22.71875 9.90625 C 22.691406 9.628906 22.542969 9.441406 22.28125 9.34375 C 22.546875 9.246094 22.691406 9.058594 22.71875 8.78125 Z M 22.71875 8.78125 "/>
<path style=" stroke:none;fill-rule:evenodd;fill:rgb(7.058824%,7.058824%,6.27451%);fill-opacity:1;" d="M 26.09375 -0.03125 C 28.050781 -0.03125 30.011719 -0.03125 31.96875 -0.03125 C 31.96875 10.636719 31.96875 21.300781 31.96875 31.96875 C 31.03125 31.96875 30.09375 31.96875 29.15625 31.96875 C 29.183594 31.921875 29.222656 31.890625 29.28125 31.875 C 29.125 31.8125 29.125 31.738281 29.28125 31.65625 C 29.128906 31.5625 29.148438 31.492188 29.34375 31.4375 C 29.210938 31.324219 29.210938 31.230469 29.34375 31.15625 C 29.300781 31.09375 29.261719 31.03125 29.21875 30.96875 C 29.304688 30.886719 29.285156 30.832031 29.15625 30.8125 C 29.292969 30.734375 29.441406 30.671875 29.59375 30.625 C 29.453125 30.609375 29.328125 30.601562 29.21875 30.59375 C 29.277344 30.542969 29.316406 30.480469 29.34375 30.40625 C 29.1875 30.21875 29.226562 30.148438 29.46875 30.1875 C 29.386719 30.125 29.386719 30.0625 29.46875 30 C 29.425781 29.980469 29.386719 29.957031 29.34375 29.9375 C 29.367188 29.84375 29.367188 29.738281 29.34375 29.625 C 29.402344 29.59375 29.464844 29.585938 29.53125 29.59375 C 29.539062 29.527344 29.53125 29.464844 29.5 29.40625 C 29.457031 29.5625 29.40625 29.5625 29.34375 29.40625 C 29.417969 29.324219 29.398438 29.261719 29.28125 29.21875 C 29.328125 29.113281 29.304688 29.011719 29.21875 28.90625 C 29.261719 28.886719 29.300781 28.863281 29.34375 28.84375 C 29.28125 28.71875 29.21875 28.59375 29.15625 28.46875 C 29.1875 28.425781 29.230469 28.394531 29.28125 28.375 C 29.230469 28.355469 29.1875 28.324219 29.15625 28.28125 C 29.3125 28.058594 29.273438 27.933594 29.03125 27.90625 C 29.101562 27.789062 29.183594 27.746094 29.28125 27.78125 C 29.261719 27.71875 29.21875 27.675781 29.15625 27.65625 C 29.097656 27.707031 29.035156 27.71875 28.96875 27.6875 C 29.050781 27.625 29.136719 27.5625 29.21875 27.5 C 29.121094 27.480469 29.039062 27.441406 28.96875 27.375 C 29.089844 27.363281 29.191406 27.351562 29.28125 27.34375 C 29.207031 27.265625 29.207031 27.195312 29.28125 27.125 C 29.085938 27.0625 29.0625 26.980469 29.21875 26.875 C 29.152344 26.792969 29.070312 26.773438 28.96875 26.8125 C 29.03125 26.75 29.09375 26.6875 29.15625 26.625 C 29.007812 26.5625 29.027344 26.523438 29.21875 26.5 C 29.113281 26.480469 29.011719 26.457031 28.90625 26.4375 C 29.015625 26.410156 29.054688 26.355469 29.03125 26.28125 C 29.074219 26.300781 29.113281 26.324219 29.15625 26.34375 C 29.226562 26.234375 29.296875 26.132812 29.375 26.03125 C 29.457031 26.113281 29.542969 26.113281 29.625 26.03125 C 29.683594 26.082031 29.722656 26.144531 29.75 26.21875 C 29.824219 26.132812 29.917969 26.078125 30.03125 26.0625 C 30.113281 25.949219 30.105469 25.917969 30 25.96875 C 30.035156 25.765625 30.148438 25.609375 30.34375 25.5 C 30.269531 25.445312 30.269531 25.390625 30.34375 25.34375 C 30.398438 25.40625 30.441406 25.40625 30.46875 25.34375 C 30.226562 25.28125 30.226562 25.210938 30.46875 25.125 C 30.398438 25.109375 30.335938 25.078125 30.28125 25.03125 C 30.355469 25.054688 30.410156 25.015625 30.4375 24.90625 C 30.421875 24.777344 30.433594 24.652344 30.46875 24.53125 C 30.414062 24.4375 30.332031 24.386719 30.21875 24.375 C 30.269531 24.316406 30.332031 24.277344 30.40625 24.25 C 30.289062 24.199219 30.265625 24.125 30.34375 24.03125 C 30.410156 24.128906 30.492188 24.160156 30.59375 24.125 C 30.519531 23.945312 30.519531 23.769531 30.59375 23.59375 C 30.5625 23.53125 30.53125 23.46875 30.5 23.40625 C 30.332031 23.550781 30.167969 23.699219 30 23.84375 C 29.957031 23.800781 29.917969 23.761719 29.875 23.71875 C 29.785156 23.796875 29.691406 23.796875 29.59375 23.71875 C 29.550781 23.75 29.519531 23.792969 29.5 23.84375 C 29.40625 23.796875 29.398438 23.746094 29.46875 23.6875 C 29.371094 23.667969 29.296875 23.617188 29.25 23.53125 C 29.230469 23.550781 29.207031 23.574219 29.1875 23.59375 C 29.1875 23.511719 29.1875 23.425781 29.1875 23.34375 C 29.074219 23.425781 29.042969 23.417969 29.09375 23.3125 C 28.949219 23.203125 28.816406 23.089844 28.6875 22.96875 C 28.667969 23.011719 28.644531 23.050781 28.625 23.09375 C 28.5625 23.0625 28.488281 23.054688 28.40625 23.0625 C 28.386719 23.042969 28.363281 23.019531 28.34375 23 C 28.402344 22.96875 28.464844 22.960938 28.53125 22.96875 C 28.53125 22.867188 28.492188 22.78125 28.40625 22.71875 C 28.4375 22.65625 28.476562 22.605469 28.53125 22.5625 C 28.328125 22.546875 28.140625 22.484375 27.96875 22.375 C 27.957031 22.214844 27.957031 21.996094 27.96875 21.71875 C 27.808594 21.722656 27.714844 21.804688 27.6875 21.96875 C 27.617188 21.890625 27.609375 21.816406 27.65625 21.75 C 27.597656 21.71875 27.535156 21.710938 27.46875 21.71875 C 27.460938 21.652344 27.46875 21.589844 27.5 21.53125 C 27.558594 21.601562 27.609375 21.59375 27.65625 21.5 C 27.511719 21.398438 27.363281 21.296875 27.21875 21.1875 C 27.339844 21.074219 27.441406 20.949219 27.53125 20.8125 C 27.464844 20.78125 27.402344 20.792969 27.34375 20.84375 C 27.1875 20.78125 27.1875 20.707031 27.34375 20.625 C 27.34375 20.417969 27.34375 20.1875 27.34375 19.9375 C 27.488281 19.980469 27.636719 19.960938 27.78125 19.875 C 27.75 19.84375 27.71875 19.8125 27.6875 19.78125 C 27.558594 19.804688 27.425781 19.804688 27.28125 19.78125 C 27.40625 19.472656 27.511719 19.453125 27.59375 19.71875 C 27.65625 19.636719 27.71875 19.550781 27.78125 19.46875 C 27.757812 19.394531 27.726562 19.394531 27.6875 19.46875 C 27.648438 19.339844 27.574219 19.234375 27.46875 19.15625 C 27.492188 19.082031 27.523438 19.082031 27.5625 19.15625 C 27.574219 19.113281 27.582031 19.074219 27.59375 19.03125 C 27.511719 19 27.46875 18.917969 27.46875 18.78125 C 27.589844 18.800781 27.695312 18.800781 27.78125 18.78125 C 27.738281 18.636719 27.675781 18.5 27.59375 18.375 C 27.613281 18.363281 27.636719 18.355469 27.65625 18.34375 C 27.828125 18.472656 28.003906 18.535156 28.1875 18.53125 C 28.265625 18.390625 28.382812 18.289062 28.53125 18.21875 C 28.628906 18.289062 28.734375 18.320312 28.84375 18.3125 C 28.78125 18.207031 28.6875 18.152344 28.5625 18.15625 C 28.339844 18.222656 28.121094 18.222656 27.90625 18.15625 C 28.011719 18.054688 28.054688 17.949219 28.03125 17.84375 C 28.074219 17.953125 28.125 18.058594 28.1875 18.15625 C 28.230469 18.101562 28.28125 18.0625 28.34375 18.03125 C 28.570312 18.117188 28.589844 18.074219 28.40625 17.90625 C 28.515625 17.757812 28.640625 17.621094 28.78125 17.5 C 28.695312 17.398438 28.707031 17.304688 28.8125 17.21875 C 28.753906 17.363281 28.804688 17.464844 28.96875 17.53125 C 29.054688 17.425781 29.15625 17.394531 29.28125 17.4375 C 29.082031 17.542969 29.074219 17.636719 29.25 17.71875 C 29.277344 17.609375 29.332031 17.570312 29.40625 17.59375 C 29.339844 17.523438 29.339844 17.460938 29.40625 17.40625 C 29.464844 17.335938 29.515625 17.335938 29.5625 17.40625 C 29.566406 17.574219 29.566406 17.742188 29.5625 17.90625 C 29.625 17.976562 29.667969 17.957031 29.6875 17.84375 C 29.824219 17.9375 29.8125 18.011719 29.65625 18.0625 C 29.886719 18.140625 30.042969 18.070312 30.125 17.84375 C 30.1875 17.917969 30.261719 17.980469 30.34375 18.03125 C 30.511719 17.96875 30.511719 17.90625 30.34375 17.84375 C 30.367188 17.722656 30.429688 17.628906 30.53125 17.5625 C 30.488281 17.550781 30.449219 17.542969 30.40625 17.53125 C 30.285156 17.6875 30.171875 17.6875 30.0625 17.53125 C 30.046875 17.621094 30.015625 17.703125 29.96875 17.78125 C 29.964844 17.65625 29.925781 17.519531 29.84375 17.375 C 29.914062 17.359375 29.976562 17.328125 30.03125 17.28125 C 29.980469 17.222656 29.96875 17.160156 30 17.09375 C 30.140625 17.128906 30.265625 17.191406 30.375 17.28125 C 30.398438 17.222656 30.429688 17.171875 30.46875 17.125 C 30.332031 17.113281 30.207031 17.074219 30.09375 17 C 30.210938 16.839844 30.3125 16.671875 30.40625 16.5 C 30.261719 16.359375 30.300781 16.265625 30.53125 16.21875 C 30.460938 16.160156 30.460938 16.109375 30.53125 16.0625 C 30.472656 16.023438 30.417969 16.035156 30.375 16.09375 C 30.34375 15.957031 30.394531 15.90625 30.53125 15.9375 C 30.578125 16.03125 30.640625 16.117188 30.71875 16.1875 C 30.570312 16.25 30.589844 16.289062 30.78125 16.3125 C 30.761719 16.332031 30.738281 16.355469 30.71875 16.375 C 30.78125 16.417969 30.84375 16.417969 30.90625 16.375 C 30.886719 16.355469 30.863281 16.332031 30.84375 16.3125 C 30.949219 16.292969 31.050781 16.269531 31.15625 16.25 C 31.121094 16.191406 31.082031 16.140625 31.03125 16.09375 C 30.960938 16.175781 30.878906 16.207031 30.78125 16.1875 C 30.863281 16.042969 30.863281 15.894531 30.78125 15.75 C 30.886719 15.730469 30.988281 15.707031 31.09375 15.6875 C 30.863281 15.65625 30.738281 15.519531 30.71875 15.28125 C 30.824219 15.160156 30.886719 15.046875 30.90625 14.9375 C 30.859375 14.828125 30.828125 14.714844 30.8125 14.59375 C 30.746094 14.640625 30.671875 14.632812 30.59375 14.5625 C 30.46875 14.449219 30.46875 14.367188 30.59375 14.3125 C 30.546875 14.203125 30.515625 14.089844 30.5 13.96875 C 30.371094 14.011719 30.257812 13.972656 30.15625 13.84375 C 30.09375 13.886719 30.03125 13.925781 29.96875 13.96875 C 29.988281 13.894531 29.988281 13.8125 29.96875 13.71875 C 29.90625 13.75 29.855469 13.789062 29.8125 13.84375 C 29.75 13.792969 29.675781 13.769531 29.59375 13.78125 C 29.585938 13.65625 29.628906 13.554688 29.71875 13.46875 C 29.664062 13.402344 29.601562 13.390625 29.53125 13.4375 C 29.601562 13.496094 29.59375 13.546875 29.5 13.59375 C 29.488281 13.484375 29.457031 13.378906 29.40625 13.28125 C 29.363281 13.3125 29.332031 13.355469 29.3125 13.40625 C 29.179688 13.230469 29.023438 13.199219 28.84375 13.3125 C 29.007812 13.4375 28.996094 13.550781 28.8125 13.65625 C 28.796875 13.523438 28.734375 13.417969 28.625 13.34375 C 28.582031 13.238281 28.582031 13.136719 28.625 13.03125 C 28.691406 12.960938 28.730469 12.878906 28.75 12.78125 C 28.917969 12.855469 28.96875 12.972656 28.90625 13.125 C 29.03125 13.167969 29.15625 13.1875 29.28125 13.1875 C 29.238281 13.125 29.199219 13.0625 29.15625 13 C 29.308594 12.882812 29.308594 12.757812 29.15625 12.625 C 29.226562 12.5625 29.207031 12.519531 29.09375 12.5 C 29.253906 12.359375 29.234375 12.234375 29.03125 12.125 C 29.101562 12.109375 29.164062 12.078125 29.21875 12.03125 C 28.972656 11.921875 28.777344 11.753906 28.625 11.53125 C 28.609375 11.601562 28.578125 11.664062 28.53125 11.71875 C 28.289062 11.609375 28.152344 11.421875 28.125 11.15625 C 28.035156 11.332031 27.921875 11.363281 27.78125 11.25 C 27.863281 11.207031 27.949219 11.167969 28.03125 11.125 C 28.300781 10.867188 28.28125 10.710938 27.96875 10.65625 C 28.117188 10.570312 28.125 10.46875 28 10.34375 C 27.972656 10.433594 27.921875 10.464844 27.84375 10.4375 C 27.886719 10.359375 27.941406 10.285156 28 10.21875 C 28.019531 10.238281 28.042969 10.261719 28.0625 10.28125 C 28.09375 10.207031 28.144531 10.15625 28.21875 10.125 C 28.125 9.925781 28.023438 9.726562 27.90625 9.53125 C 27.953125 9.367188 27.953125 9.222656 27.90625 9.09375 C 27.863281 9.011719 27.824219 9.011719 27.78125 9.09375 C 27.746094 9.207031 27.695312 9.3125 27.625 9.40625 C 27.578125 9.367188 27.527344 9.335938 27.46875 9.3125 C 27.519531 9.292969 27.5625 9.261719 27.59375 9.21875 C 27.523438 9.160156 27.523438 9.109375 27.59375 9.0625 C 27.542969 9.042969 27.5 9.011719 27.46875 8.96875 C 27.507812 8.886719 27.539062 8.804688 27.5625 8.71875 C 27.589844 8.746094 27.621094 8.769531 27.65625 8.78125 C 27.871094 8.605469 27.910156 8.617188 27.78125 8.8125 C 27.882812 8.828125 27.976562 8.859375 28.0625 8.90625 C 28.058594 8.792969 28.070312 8.6875 28.09375 8.59375 C 28.042969 8.550781 28 8.496094 27.96875 8.4375 C 28.027344 8.238281 28.128906 8.070312 28.28125 7.9375 C 28.222656 7.914062 28.179688 7.871094 28.15625 7.8125 C 28.246094 7.613281 28.359375 7.582031 28.5 7.71875 C 28.613281 7.597656 28.582031 7.503906 28.40625 7.4375 C 28.464844 7.398438 28.519531 7.410156 28.5625 7.46875 C 28.613281 7.417969 28.667969 7.363281 28.71875 7.3125 C 28.582031 7.308594 28.457031 7.296875 28.34375 7.28125 C 28.417969 7.203125 28.417969 7.132812 28.34375 7.0625 C 28.429688 7.023438 28.515625 7.035156 28.59375 7.09375 C 28.609375 7.046875 28.628906 6.996094 28.65625 6.9375 C 28.597656 6.914062 28.546875 6.882812 28.5 6.84375 C 28.453125 6.949219 28.382812 6.980469 28.28125 6.9375 C 28.328125 6.871094 28.320312 6.796875 28.25 6.71875 C 28.1875 6.800781 28.125 6.886719 28.0625 6.96875 C 28.042969 6.949219 28.019531 6.925781 28 6.90625 C 27.683594 7.207031 27.628906 7.167969 27.84375 6.78125 C 27.792969 6.65625 27.722656 6.636719 27.625 6.71875 C 27.582031 6.636719 27.59375 6.566406 27.65625 6.5 C 27.574219 6.503906 27.488281 6.535156 27.40625 6.59375 C 27.363281 6.574219 27.324219 6.550781 27.28125 6.53125 C 27.328125 6.300781 27.421875 6.257812 27.5625 6.40625 C 27.644531 6.300781 27.730469 6.199219 27.8125 6.09375 C 27.855469 6.175781 27.894531 6.175781 27.9375 6.09375 C 28.007812 5.953125 28.058594 5.804688 28.09375 5.65625 C 28.308594 5.621094 28.515625 5.609375 28.71875 5.625 C 28.3125 5.300781 28.34375 5.269531 28.8125 5.53125 C 28.835938 5.398438 28.875 5.273438 28.9375 5.15625 C 29.023438 5.347656 29.148438 5.453125 29.3125 5.46875 C 29.316406 5.339844 29.285156 5.214844 29.21875 5.09375 C 29.09375 5.050781 28.992188 4.976562 28.90625 4.875 C 28.953125 4.808594 28.945312 4.734375 28.875 4.65625 C 28.769531 4.71875 28.667969 4.78125 28.5625 4.84375 C 28.53125 4.902344 28.523438 4.964844 28.53125 5.03125 C 28.339844 5.027344 28.160156 5.046875 28 5.09375 C 27.976562 5.035156 27.945312 4.984375 27.90625 4.9375 C 28.097656 4.964844 28.285156 4.925781 28.46875 4.8125 C 28.398438 4.796875 28.335938 4.765625 28.28125 4.71875 C 28.363281 4.59375 28.320312 4.519531 28.15625 4.5 C 28.304688 4.449219 28.296875 4.398438 28.125 4.34375 C 28.085938 4.578125 28.023438 4.578125 27.9375 4.34375 C 27.734375 4.425781 27.703125 4.40625 27.84375 4.28125 C 27.757812 4.175781 27.777344 4.09375 27.90625 4.03125 C 27.835938 3.972656 27.835938 3.921875 27.90625 3.875 C 27.875 3.832031 27.832031 3.800781 27.78125 3.78125 C 27.722656 3.832031 27.660156 3.84375 27.59375 3.8125 C 27.664062 3.648438 27.726562 3.480469 27.78125 3.3125 C 27.722656 3.28125 27.660156 3.273438 27.59375 3.28125 C 27.609375 3.355469 27.585938 3.417969 27.53125 3.46875 C 27.417969 3.621094 27.3125 3.621094 27.21875 3.46875 C 27.292969 3.390625 27.292969 3.320312 27.21875 3.25 C 27.300781 3.25 27.386719 3.25 27.46875 3.25 C 27.386719 3.207031 27.386719 3.167969 27.46875 3.125 C 27.273438 3.078125 27.230469 2.972656 27.34375 2.8125 C 27.214844 2.691406 27.214844 2.589844 27.34375 2.5 C 27.226562 2.410156 27.195312 2.296875 27.25 2.15625 C 27.382812 2.242188 27.445312 2.347656 27.4375 2.46875 C 27.484375 2.429688 27.535156 2.398438 27.59375 2.375 C 27.429688 2.226562 27.460938 2.109375 27.6875 2.03125 C 27.785156 2.28125 27.859375 2.273438 27.90625 2 C 27.832031 1.972656 27.769531 1.933594 27.71875 1.875 C 27.777344 1.835938 27.832031 1.847656 27.875 1.90625 C 27.925781 1.855469 27.980469 1.800781 28.03125 1.75 C 27.890625 1.734375 27.765625 1.726562 27.65625 1.71875 C 27.71875 1.644531 27.773438 1.558594 27.8125 1.46875 C 27.847656 1.578125 27.898438 1.601562 27.96875 1.53125 C 27.921875 1.363281 27.910156 1.175781 27.9375 0.96875 C 28.042969 0.917969 28.050781 0.949219 27.96875 1.0625 C 28.277344 1.085938 28.296875 1.003906 28.03125 0.8125 C 28.195312 0.832031 28.351562 0.78125 28.5 0.65625 C 28.550781 0.71875 28.605469 0.78125 28.65625 0.84375 C 28.71875 0.824219 28.761719 0.78125 28.78125 0.71875 C 28.738281 0.699219 28.699219 0.675781 28.65625 0.65625 C 28.707031 0.601562 28.769531 0.578125 28.84375 0.59375 C 28.828125 0.667969 28.851562 0.730469 28.90625 0.78125 C 28.929688 0.679688 28.960938 0.554688 29 0.40625 C 29.132812 0.535156 29.289062 0.585938 29.46875 0.5625 C 29.257812 0.378906 28.996094 0.242188 28.6875 0.15625 C 28.667969 0.273438 28.71875 0.359375 28.84375 0.40625 C 28.699219 0.492188 28.605469 0.453125 28.5625 0.28125 C 28.492188 0.359375 28.484375 0.433594 28.53125 0.5 C 28.472656 0.53125 28.410156 0.539062 28.34375 0.53125 C 28.351562 0.378906 28.300781 0.335938 28.1875 0.40625 C 28.167969 0.300781 28.144531 0.199219 28.125 0.09375 C 28.082031 0.125 28.050781 0.167969 28.03125 0.21875 C 28.09375 0.417969 28.011719 0.535156 27.78125 0.5625 C 27.894531 0.636719 28.019531 0.675781 28.15625 0.6875 C 27.980469 0.722656 27.835938 0.808594 27.71875 0.9375 C 27.769531 0.957031 27.8125 0.988281 27.84375 1.03125 C 27.78125 1.085938 27.726562 1.148438 27.6875 1.21875 C 27.625 1.289062 27.582031 1.269531 27.5625 1.15625 C 27.5 1.238281 27.4375 1.324219 27.375 1.40625 C 27.355469 1.386719 27.332031 1.363281 27.3125 1.34375 C 27.132812 1.410156 27.007812 1.535156 26.9375 1.71875 C 26.914062 1.527344 26.875 1.507812 26.8125 1.65625 C 26.757812 1.597656 26.695312 1.597656 26.625 1.65625 C 26.523438 1.628906 26.449219 1.566406 26.40625 1.46875 C 26.515625 1.484375 26.621094 1.429688 26.71875 1.3125 C 26.667969 1.207031 26.605469 1.195312 26.53125 1.28125 C 26.351562 1.191406 26.164062 1.140625 25.96875 1.125 C 26.011719 1.082031 26.050781 1.042969 26.09375 1 C 26.015625 0.789062 25.964844 0.800781 25.9375 1.03125 C 25.863281 0.925781 25.792969 0.824219 25.71875 0.71875 C 25.789062 0.632812 25.871094 0.558594 25.96875 0.5 C 25.914062 0.402344 25.851562 0.308594 25.78125 0.21875 C 25.902344 0.148438 26.003906 0.0664062 26.09375 -0.03125 Z M 26.09375 -0.03125 "/>
<path style=" stroke:none;fill-rule:evenodd;fill:rgb(95.294118%,78.431374%,46.27451%);fill-opacity:1;" d="M 17.21875 10.28125 C 17.175781 10.324219 17.136719 10.363281 17.09375 10.40625 C 17.09375 9.78125 17.09375 9.15625 17.09375 8.53125 C 15.144531 8.480469 13.1875 8.449219 11.21875 8.4375 C 13.199219 8.386719 15.175781 8.394531 17.15625 8.46875 C 17.21875 9.070312 17.238281 9.671875 17.21875 10.28125 Z M 17.21875 10.28125 "/>
<path style=" stroke:none;fill-rule:evenodd;fill:rgb(79.215688%,63.921571%,38.431373%);fill-opacity:1;" d="M 17.78125 10.84375 C 17.675781 10.84375 17.574219 10.84375 17.46875 10.84375 C 17.46875 12.03125 17.46875 13.21875 17.46875 14.40625 C 17.417969 13.230469 17.386719 12.042969 17.375 10.84375 C 17.363281 12.074219 17.332031 13.300781 17.28125 14.53125 C 17.199219 13.199219 17.199219 11.886719 17.28125 10.59375 C 18.207031 10.53125 19.058594 10.75 19.84375 11.25 C 20.074219 11.398438 20.261719 11.585938 20.40625 11.8125 C 20.367188 11.941406 20.304688 12.054688 20.21875 12.15625 C 19.570312 11.175781 18.65625 10.707031 17.46875 10.75 C 17.585938 10.761719 17.691406 10.792969 17.78125 10.84375 Z M 17.78125 10.84375 "/>
<path style=" stroke:none;fill-rule:evenodd;fill:rgb(84.705883%,70.19608%,41.960785%);fill-opacity:1;" d="M 17.46875 4.28125 C 17.46875 6.34375 17.46875 8.40625 17.46875 10.46875 C 18.679688 10.414062 19.691406 10.828125 20.5 11.71875 C 20.457031 11.976562 20.371094 12.226562 20.25 12.46875 C 19.746094 11.449219 18.921875 10.910156 17.78125 10.84375 C 17.691406 10.792969 17.585938 10.761719 17.46875 10.75 C 18.65625 10.707031 19.570312 11.175781 20.21875 12.15625 C 20.304688 12.054688 20.367188 11.941406 20.40625 11.8125 C 20.261719 11.585938 20.074219 11.398438 19.84375 11.25 C 19.058594 10.75 18.207031 10.53125 17.28125 10.59375 C 17.199219 11.886719 17.199219 13.199219 17.28125 14.53125 C 17.332031 13.300781 17.363281 12.074219 17.375 10.84375 C 17.386719 12.042969 17.417969 13.230469 17.46875 14.40625 C 17.546875 14.550781 17.632812 14.695312 17.71875 14.84375 C 18.855469 14.886719 19.980469 14.925781 21.09375 14.96875 C 19.957031 14.949219 18.832031 14.96875 17.71875 15.03125 C 17.667969 14.972656 17.617188 14.910156 17.5625 14.84375 C 17.542969 14.886719 17.519531 14.925781 17.5 14.96875 C 17.351562 14.890625 17.226562 14.789062 17.125 14.65625 C 17.027344 14.777344 16.953125 14.914062 16.90625 15.0625 C 16.976562 15.253906 17.070312 15.429688 17.1875 15.59375 C 17.230469 16.550781 17.230469 17.511719 17.1875 18.46875 C 17.140625 18.535156 17.078125 18.578125 17 18.59375 C 15.273438 18.203125 14.210938 17.140625 13.8125 15.40625 C 13.769531 14.925781 13.769531 14.449219 13.8125 13.96875 C 13.855469 13.84375 13.894531 13.71875 13.9375 13.59375 C 13.96875 13.652344 13.976562 13.714844 13.96875 13.78125 C 13.695312 15.453125 14.21875 16.820312 15.53125 17.875 C 15.914062 18.132812 16.332031 18.308594 16.78125 18.40625 C 16.871094 18.464844 16.972656 18.488281 17.09375 18.46875 C 17.113281 17.5 17.09375 16.542969 17.03125 15.59375 C 16.933594 15.417969 16.847656 15.230469 16.78125 15.03125 C 16.839844 14.851562 16.921875 14.683594 17.03125 14.53125 C 17.09375 13.3125 17.113281 12.082031 17.09375 10.84375 C 16.972656 10.824219 16.871094 10.847656 16.78125 10.90625 C 15.378906 11.273438 14.464844 12.148438 14.03125 13.53125 C 13.980469 13.375 13.949219 13.210938 13.9375 13.03125 C 13.835938 13.316406 13.75 13.609375 13.6875 13.90625 C 13.671875 13.632812 13.703125 13.359375 13.78125 13.09375 C 14.378906 11.578125 15.484375 10.683594 17.09375 10.40625 C 17.136719 10.363281 17.175781 10.324219 17.21875 10.28125 C 17.203125 10.355469 17.226562 10.417969 17.28125 10.46875 C 17.320312 10.460938 17.339844 10.441406 17.34375 10.40625 C 17.386719 8.363281 17.425781 6.324219 17.46875 4.28125 Z M 17.46875 4.28125 "/>
<path style=" stroke:none;fill-rule:evenodd;fill:rgb(6.666667%,6.666667%,6.27451%);fill-opacity:1;" d="M 16.78125 10.90625 C 16.863281 10.90625 16.949219 10.90625 17.03125 10.90625 C 17.03125 12.113281 17.03125 13.324219 17.03125 14.53125 C 16.921875 14.683594 16.839844 14.851562 16.78125 15.03125 C 16.847656 15.230469 16.933594 15.417969 17.03125 15.59375 C 17.03125 16.53125 17.03125 17.46875 17.03125 18.40625 C 16.949219 18.40625 16.863281 18.40625 16.78125 18.40625 C 16.332031 18.308594 15.914062 18.132812 15.53125 17.875 C 14.21875 16.820312 13.695312 15.453125 13.96875 13.78125 C 14.027344 13.714844 14.046875 13.632812 14.03125 13.53125 C 14.464844 12.148438 15.378906 11.273438 16.78125 10.90625 Z M 16.78125 10.90625 "/>
<path style=" stroke:none;fill-rule:evenodd;fill:rgb(86.666667%,70.588237%,41.568628%);fill-opacity:1;" d="M 11.21875 12.46875 C 11.265625 12.707031 11.390625 12.894531 11.59375 13.03125 C 11.566406 13.082031 11.523438 13.101562 11.46875 13.09375 C 11.136719 13.050781 10.800781 13.011719 10.46875 12.96875 C 10.550781 12.886719 10.636719 12.800781 10.71875 12.71875 C 10.714844 12.746094 10.726562 12.765625 10.75 12.78125 C 10.769531 12.738281 10.792969 12.699219 10.8125 12.65625 C 10.84375 11.386719 10.855469 10.113281 10.84375 8.84375 C 10.867188 9.925781 10.929688 11.011719 11.03125 12.09375 C 10.980469 12.136719 10.9375 12.191406 10.90625 12.25 C 10.933594 12.359375 10.964844 12.351562 11 12.21875 C 11.019531 12.363281 11.042969 12.511719 11.0625 12.65625 C 11.082031 11.28125 11.105469 9.90625 11.125 8.53125 C 11.136719 9.855469 11.167969 11.167969 11.21875 12.46875 Z M 11.21875 12.46875 "/>
<path style=" stroke:none;fill-rule:evenodd;fill:rgb(66.274512%,53.333336%,31.764707%);fill-opacity:1;" d="M 10.46875 12.96875 C 10.800781 13.011719 11.136719 13.050781 11.46875 13.09375 C 11.113281 13.113281 10.757812 13.09375 10.40625 13.03125 C 10.414062 12.992188 10.433594 12.972656 10.46875 12.96875 Z M 10.46875 12.96875 "/>
<path style=" stroke:none;fill-rule:evenodd;fill:rgb(28.627452%,23.921569%,15.686275%);fill-opacity:1;" d="M 16.78125 10.90625 C 16.871094 10.847656 16.972656 10.824219 17.09375 10.84375 C 17.113281 12.082031 17.09375 13.3125 17.03125 14.53125 C 17.03125 13.324219 17.03125 12.113281 17.03125 10.90625 C 16.949219 10.90625 16.863281 10.90625 16.78125 10.90625 Z M 16.78125 10.90625 "/>
<path style=" stroke:none;fill-rule:evenodd;fill:rgb(81.960785%,67.058825%,39.607844%);fill-opacity:1;" d="M 9.90625 14.46875 C 10.003906 14.683594 10.097656 14.910156 10.1875 15.15625 C 10.347656 15.328125 10.546875 15.433594 10.78125 15.46875 C 10.566406 15.554688 10.367188 15.679688 10.1875 15.84375 C 10.097656 16.046875 10.023438 16.253906 9.96875 16.46875 C 9.941406 16.210938 9.847656 15.984375 9.6875 15.78125 C 9.503906 15.683594 9.328125 15.582031 9.15625 15.46875 C 9.648438 15.320312 9.898438 14.984375 9.90625 14.46875 Z M 9.90625 14.46875 "/>
<path style=" stroke:none;fill-rule:evenodd;fill:rgb(92.156863%,77.254903%,47.058824%);fill-opacity:1;" d="M 21.09375 15.34375 C 19.945312 15.324219 18.800781 15.34375 17.65625 15.40625 C 17.558594 15.515625 17.496094 15.640625 17.46875 15.78125 C 17.417969 16.667969 17.386719 17.5625 17.375 18.46875 C 17.332031 17.53125 17.332031 16.59375 17.375 15.65625 C 17.460938 15.515625 17.554688 15.378906 17.65625 15.25 C 18.824219 15.207031 19.988281 15.207031 21.15625 15.25 C 21.308594 15.316406 21.289062 15.347656 21.09375 15.34375 Z M 21.09375 15.34375 "/>
<path style=" stroke:none;fill-rule:evenodd;fill:rgb(7.450981%,7.058824%,6.27451%);fill-opacity:1;" d="M 21.09375 15.34375 C 21.21875 15.433594 21.367188 15.472656 21.53125 15.46875 C 22.921875 16.238281 23.265625 17.339844 22.5625 18.78125 C 22.316406 19.183594 21.972656 19.457031 21.53125 19.59375 C 21.394531 19.570312 21.289062 19.613281 21.21875 19.71875 C 19.96875 19.71875 18.71875 19.71875 17.46875 19.71875 C 17.46875 19.449219 17.46875 19.175781 17.46875 18.90625 C 17.648438 18.925781 17.816406 18.90625 17.96875 18.84375 C 18.574219 18.777344 19.136719 18.578125 19.65625 18.25 C 19.953125 18.085938 20.203125 17.867188 20.40625 17.59375 C 20.355469 17.441406 20.292969 17.296875 20.21875 17.15625 C 19.636719 17.882812 18.886719 18.320312 17.96875 18.46875 C 17.800781 18.46875 17.636719 18.46875 17.46875 18.46875 C 17.46875 17.574219 17.46875 16.675781 17.46875 15.78125 C 17.496094 15.640625 17.558594 15.515625 17.65625 15.40625 C 18.800781 15.34375 19.945312 15.324219 21.09375 15.34375 Z M 21.09375 15.34375 "/>
<path style=" stroke:none;fill-rule:evenodd;fill:rgb(84.705883%,69.411767%,41.568628%);fill-opacity:1;" d="M 21.40625 15.03125 C 22.394531 15.257812 23.03125 15.863281 23.3125 16.84375 C 23.441406 17.734375 23.222656 18.523438 22.65625 19.21875 C 22.609375 19.226562 22.570312 19.214844 22.53125 19.1875 C 22.664062 19.113281 22.707031 19.019531 22.65625 18.90625 C 22.328125 19.363281 21.890625 19.621094 21.34375 19.6875 C 21.421875 19.671875 21.484375 19.640625 21.53125 19.59375 C 21.972656 19.457031 22.316406 19.183594 22.5625 18.78125 C 23.265625 17.339844 22.921875 16.238281 21.53125 15.46875 C 21.484375 15.421875 21.421875 15.390625 21.34375 15.375 C 21.511719 15.339844 21.667969 15.371094 21.8125 15.46875 C 21.890625 15.445312 21.960938 15.414062 22.03125 15.375 C 21.78125 15.261719 21.570312 15.148438 21.40625 15.03125 Z M 21.40625 15.03125 "/>
<path style=" stroke:none;fill-rule:evenodd;fill:rgb(80.000001%,64.705884%,39.215687%);fill-opacity:1;" d="M 14.03125 13.53125 C 14.046875 13.632812 14.027344 13.714844 13.96875 13.78125 C 13.976562 13.714844 13.96875 13.652344 13.9375 13.59375 C 13.894531 13.71875 13.855469 13.84375 13.8125 13.96875 C 13.769531 14.449219 13.769531 14.925781 13.8125 15.40625 C 14.210938 17.140625 15.273438 18.203125 17 18.59375 C 17.078125 18.578125 17.140625 18.535156 17.1875 18.46875 C 17.230469 17.511719 17.230469 16.550781 17.1875 15.59375 C 17.070312 15.429688 16.976562 15.253906 16.90625 15.0625 C 16.953125 14.914062 17.027344 14.777344 17.125 14.65625 C 17.226562 14.789062 17.351562 14.890625 17.5 14.96875 C 17.519531 14.925781 17.542969 14.886719 17.5625 14.84375 C 17.617188 14.910156 17.667969 14.972656 17.71875 15.03125 C 18.902344 15.011719 20.078125 15.03125 21.25 15.09375 C 21.277344 15.054688 21.289062 15.015625 21.28125 14.96875 C 21.34375 14.957031 21.386719 14.980469 21.40625 15.03125 C 21.570312 15.148438 21.78125 15.261719 22.03125 15.375 C 21.960938 15.414062 21.890625 15.445312 21.8125 15.46875 C 21.667969 15.371094 21.511719 15.339844 21.34375 15.375 C 21.421875 15.390625 21.484375 15.421875 21.53125 15.46875 C 21.367188 15.472656 21.21875 15.433594 21.09375 15.34375 C 21.289062 15.347656 21.308594 15.316406 21.15625 15.25 C 19.988281 15.207031 18.824219 15.207031 17.65625 15.25 C 17.554688 15.378906 17.460938 15.515625 17.375 15.65625 C 17.332031 16.59375 17.332031 17.53125 17.375 18.46875 C 17.386719 17.5625 17.417969 16.667969 17.46875 15.78125 C 17.46875 16.675781 17.46875 17.574219 17.46875 18.46875 C 17.636719 18.46875 17.800781 18.46875 17.96875 18.46875 C 17.792969 18.519531 17.605469 18.550781 17.40625 18.5625 C 17.613281 18.582031 17.824219 18.605469 18.03125 18.625 C 17.863281 18.6875 17.699219 18.75 17.53125 18.8125 C 17.675781 18.84375 17.820312 18.855469 17.96875 18.84375 C 17.816406 18.90625 17.648438 18.925781 17.46875 18.90625 C 17.46875 19.175781 17.46875 19.449219 17.46875 19.71875 C 17.417969 19.460938 17.386719 19.1875 17.375 18.90625 C 17.324219 19.214844 17.335938 19.515625 17.40625 19.8125 C 18.65625 19.855469 19.90625 19.855469 21.15625 19.8125 C 21.191406 19.789062 21.210938 19.757812 21.21875 19.71875 C 21.289062 19.613281 21.394531 19.570312 21.53125 19.59375 C 21.484375 19.640625 21.421875 19.671875 21.34375 19.6875 C 21.890625 19.621094 22.328125 19.363281 22.65625 18.90625 C 22.707031 19.019531 22.664062 19.113281 22.53125 19.1875 C 22.570312 19.214844 22.609375 19.226562 22.65625 19.21875 C 22.636719 19.28125 22.59375 19.324219 22.53125 19.34375 C 22.527344 19.308594 22.507812 19.289062 22.46875 19.28125 C 21.964844 19.710938 21.382812 19.949219 20.71875 20 C 19.636719 20.019531 18.550781 20.042969 17.46875 20.0625 C 18.59375 20.09375 19.71875 20.105469 20.84375 20.09375 C 19.730469 20.15625 18.605469 20.175781 17.46875 20.15625 C 17.457031 21.449219 17.46875 22.738281 17.5 24.03125 C 17.570312 24.164062 17.664062 24.277344 17.78125 24.375 C 17.425781 24.417969 17.074219 24.417969 16.71875 24.375 C 16.835938 24.265625 16.941406 24.152344 17.03125 24.03125 C 17.023438 24.148438 17.054688 24.167969 17.125 24.09375 C 17.144531 23.96875 17.167969 23.84375 17.1875 23.71875 C 17.230469 22.09375 17.230469 20.46875 17.1875 18.84375 C 17.164062 18.878906 17.132812 18.898438 17.09375 18.90625 C 15.132812 18.496094 13.953125 17.308594 13.5625 15.34375 C 13.519531 14.824219 13.519531 14.300781 13.5625 13.78125 C 13.59375 13.53125 13.667969 13.300781 13.78125 13.09375 C 13.703125 13.359375 13.671875 13.632812 13.6875 13.90625 C 13.75 13.609375 13.835938 13.316406 13.9375 13.03125 C 13.949219 13.210938 13.980469 13.375 14.03125 13.53125 Z M 14.03125 13.53125 "/>
<path style=" stroke:none;fill-rule:evenodd;fill:rgb(32.156864%,26.666668%,17.647059%);fill-opacity:1;" d="M 17.03125 15.59375 C 17.09375 16.542969 17.113281 17.5 17.09375 18.46875 C 16.972656 18.488281 16.871094 18.464844 16.78125 18.40625 C 16.863281 18.40625 16.949219 18.40625 17.03125 18.40625 C 17.03125 17.46875 17.03125 16.53125 17.03125 15.59375 Z M 17.03125 15.59375 "/>
<path style=" stroke:none;fill-rule:evenodd;fill:rgb(96.470588%,81.960785%,48.627451%);fill-opacity:1;" d="M 17.71875 15.03125 C 18.832031 14.96875 19.957031 14.949219 21.09375 14.96875 C 21.15625 14.96875 21.21875 14.96875 21.28125 14.96875 C 21.289062 15.015625 21.277344 15.054688 21.25 15.09375 C 20.078125 15.03125 18.902344 15.011719 17.71875 15.03125 Z M 17.71875 15.03125 "/>
<path style=" stroke:none;fill-rule:evenodd;fill:rgb(86.274511%,71.372551%,43.137255%);fill-opacity:1;" d="M 17.96875 18.84375 C 17.820312 18.855469 17.675781 18.84375 17.53125 18.8125 C 17.699219 18.75 17.863281 18.6875 18.03125 18.625 C 17.824219 18.605469 17.613281 18.582031 17.40625 18.5625 C 17.605469 18.550781 17.792969 18.519531 17.96875 18.46875 C 18.886719 18.320312 19.636719 17.882812 20.21875 17.15625 C 20.292969 17.296875 20.355469 17.441406 20.40625 17.59375 C 20.203125 17.867188 19.953125 18.085938 19.65625 18.25 C 19.136719 18.578125 18.574219 18.777344 17.96875 18.84375 Z M 17.96875 18.84375 "/>
<path style=" stroke:none;fill-rule:evenodd;fill:rgb(87.843138%,74.509805%,44.705883%);fill-opacity:1;" d="M 17.46875 19.71875 C 18.71875 19.71875 19.96875 19.71875 21.21875 19.71875 C 21.210938 19.757812 21.191406 19.789062 21.15625 19.8125 C 19.90625 19.855469 18.65625 19.855469 17.40625 19.8125 C 17.335938 19.515625 17.324219 19.214844 17.375 18.90625 C 17.386719 19.1875 17.417969 19.460938 17.46875 19.71875 Z M 17.46875 19.71875 "/>
<path style=" stroke:none;fill-rule:evenodd;fill:rgb(93.333334%,78.431374%,45.882353%);fill-opacity:1;" d="M 22.53125 19.34375 C 22.070312 19.808594 21.507812 20.058594 20.84375 20.09375 C 19.71875 20.105469 18.59375 20.09375 17.46875 20.0625 C 18.550781 20.042969 19.636719 20.019531 20.71875 20 C 21.382812 19.949219 21.964844 19.710938 22.46875 19.28125 C 22.507812 19.289062 22.527344 19.308594 22.53125 19.34375 Z M 22.53125 19.34375 "/>
<path style=" stroke:none;fill-rule:evenodd;fill:rgb(85.882354%,71.372551%,42.352942%);fill-opacity:1;" d="M 13.28125 20.65625 C 13.386719 20.773438 13.460938 20.917969 13.5 21.09375 C 13.621094 21.199219 13.753906 21.285156 13.90625 21.34375 C 13.617188 21.433594 13.421875 21.621094 13.3125 21.90625 C 13.253906 21.609375 13.078125 21.421875 12.78125 21.34375 C 13.097656 21.214844 13.265625 20.988281 13.28125 20.65625 Z M 13.28125 20.65625 "/>
<path style=" stroke:none;fill-rule:evenodd;fill:rgb(92.941177%,75.686276%,44.705883%);fill-opacity:1;" d="M 17.03125 24.03125 C 17.09375 22.328125 17.113281 20.621094 17.09375 18.90625 C 17.132812 18.898438 17.164062 18.878906 17.1875 18.84375 C 17.230469 20.46875 17.230469 22.09375 17.1875 23.71875 C 17.167969 23.84375 17.144531 23.96875 17.125 24.09375 C 17.054688 24.167969 17.023438 24.148438 17.03125 24.03125 Z M 17.03125 24.03125 "/>
<path style=" stroke:none;fill-rule:evenodd;fill:rgb(39.215687%,31.764707%,19.607843%);fill-opacity:1;" d="M 8.90625 27.84375 C 8.746094 27.8125 8.621094 27.855469 8.53125 27.96875 C 8.476562 27.925781 8.453125 27.863281 8.46875 27.78125 C 8.628906 27.761719 8.773438 27.785156 8.90625 27.84375 Z M 8.90625 27.84375 "/>
<path style=" stroke:none;fill-rule:evenodd;fill:rgb(45.882353%,36.862746%,21.960784%);fill-opacity:1;" d="M 12.09375 27.84375 C 11.992188 27.828125 11.910156 27.847656 11.84375 27.90625 C 11.808594 27.902344 11.789062 27.882812 11.78125 27.84375 C 11.894531 27.761719 11.996094 27.761719 12.09375 27.84375 Z M 12.09375 27.84375 "/>
<path style=" stroke:none;fill-rule:evenodd;fill:rgb(35.686275%,28.235295%,16.470589%);fill-opacity:1;" d="M 15.78125 27.96875 C 15.761719 27.898438 15.710938 27.855469 15.625 27.84375 C 15.539062 27.855469 15.488281 27.898438 15.46875 27.96875 C 15.414062 27.925781 15.390625 27.863281 15.40625 27.78125 C 15.550781 27.78125 15.699219 27.78125 15.84375 27.78125 C 15.859375 27.863281 15.835938 27.925781 15.78125 27.96875 Z M 15.78125 27.96875 "/>
<path style=" stroke:none;fill-rule:evenodd;fill:rgb(38.039216%,30.980393%,18.431373%);fill-opacity:1;" d="M 19.84375 27.84375 C 19.601562 27.824219 19.371094 27.84375 19.15625 27.90625 C 19.121094 27.902344 19.101562 27.882812 19.09375 27.84375 C 19.351562 27.761719 19.601562 27.761719 19.84375 27.84375 Z M 19.84375 27.84375 "/>
<path style=" stroke:none;fill-rule:evenodd;fill:rgb(32.549021%,25.490198%,15.294118%);fill-opacity:1;" d="M 21.96875 27.84375 C 21.746094 27.824219 21.539062 27.84375 21.34375 27.90625 C 21.308594 27.902344 21.289062 27.882812 21.28125 27.84375 C 21.519531 27.761719 21.75 27.761719 21.96875 27.84375 Z M 21.96875 27.84375 "/>
<path style=" stroke:none;fill-rule:evenodd;fill:rgb(36.862746%,30.19608%,18.039216%);fill-opacity:1;" d="M 23.09375 27.84375 C 22.871094 27.824219 22.664062 27.84375 22.46875 27.90625 C 22.433594 27.902344 22.414062 27.882812 22.40625 27.84375 C 22.644531 27.761719 22.875 27.761719 23.09375 27.84375 Z M 23.09375 27.84375 "/>
<path style=" stroke:none;fill-rule:evenodd;fill:rgb(93.725491%,83.137256%,49.019608%);fill-opacity:1;" d="M 17.84375 27.84375 C 17.878906 28.101562 17.816406 28.144531 17.65625 27.96875 C 17.542969 27.917969 17.417969 27.886719 17.28125 27.875 C 17.46875 27.84375 17.65625 27.832031 17.84375 27.84375 Z M 17.84375 27.84375 "/>
<path style=" stroke:none;fill-rule:evenodd;fill:rgb(27.843139%,22.352941%,14.509805%);fill-opacity:1;" d="M 20.96875 28.03125 C 21.023438 27.988281 21.046875 27.925781 21.03125 27.84375 C 20.769531 27.824219 20.519531 27.84375 20.28125 27.90625 C 20.246094 27.902344 20.226562 27.882812 20.21875 27.84375 C 20.507812 27.78125 20.800781 27.761719 21.09375 27.78125 C 21.113281 27.894531 21.089844 27.996094 21.03125 28.09375 C 20.992188 28.085938 20.972656 28.066406 20.96875 28.03125 Z M 20.96875 28.03125 "/>
<path style=" stroke:none;fill-rule:evenodd;fill:rgb(66.274512%,56.078434%,32.549021%);fill-opacity:1;" d="M 17.84375 27.84375 C 17.65625 27.832031 17.46875 27.84375 17.28125 27.875 C 17.417969 27.886719 17.542969 27.917969 17.65625 27.96875 C 17.464844 27.945312 17.300781 27.988281 17.15625 28.09375 C 17.15625 28.011719 17.113281 27.96875 17.03125 27.96875 C 17.066406 27.886719 17.128906 27.835938 17.21875 27.8125 C 17.4375 27.761719 17.648438 27.773438 17.84375 27.84375 Z M 17.84375 27.84375 "/>
<path style=" stroke:none;fill-rule:evenodd;fill:rgb(81.960785%,68.627453%,40.000001%);fill-opacity:1;" d="M 8.53125 27.96875 C 8.621094 27.855469 8.746094 27.8125 8.90625 27.84375 C 8.808594 28.042969 8.765625 28.261719 8.78125 28.5 C 8.789062 28.710938 8.828125 28.90625 8.90625 29.09375 C 8.78125 29.175781 8.65625 29.175781 8.53125 29.09375 C 8.589844 28.910156 8.609375 28.722656 8.59375 28.53125 C 8.40625 28.53125 8.21875 28.53125 8.03125 28.53125 C 8.03125 28.699219 8.03125 28.863281 8.03125 29.03125 C 7.949219 29.113281 7.863281 29.113281 7.78125 29.03125 C 7.800781 28.652344 7.777344 28.277344 7.71875 27.90625 C 7.84375 27.824219 7.96875 27.824219 8.09375 27.90625 C 8.039062 28.066406 8.015625 28.234375 8.03125 28.40625 C 8.21875 28.40625 8.40625 28.40625 8.59375 28.40625 C 8.613281 28.246094 8.589844 28.101562 8.53125 27.96875 Z M 8.53125 27.96875 "/>
<path style=" stroke:none;fill-rule:evenodd;fill:rgb(83.92157%,70.588237%,41.176471%);fill-opacity:1;" d="M 11.28125 28.65625 C 11.285156 28.691406 11.304688 28.710938 11.34375 28.71875 C 11.425781 28.460938 11.425781 28.210938 11.34375 27.96875 C 11.308594 27.964844 11.289062 27.945312 11.28125 27.90625 C 11.378906 27.835938 11.484375 27.824219 11.59375 27.875 C 11.558594 27.898438 11.539062 27.929688 11.53125 27.96875 C 11.488281 28.363281 11.449219 28.761719 11.40625 29.15625 C 11.175781 28.863281 10.945312 28.570312 10.71875 28.28125 C 10.714844 28.246094 10.695312 28.226562 10.65625 28.21875 C 10.574219 28.5 10.574219 28.769531 10.65625 29.03125 C 10.691406 29.035156 10.710938 29.054688 10.71875 29.09375 C 10.613281 29.175781 10.511719 29.175781 10.40625 29.09375 C 10.488281 28.699219 10.488281 28.300781 10.40625 27.90625 C 10.511719 27.824219 10.613281 27.824219 10.71875 27.90625 C 10.90625 28.15625 11.09375 28.40625 11.28125 28.65625 Z M 11.28125 28.65625 "/>
<path style=" stroke:none;fill-rule:evenodd;fill:rgb(81.960785%,68.235296%,40.000001%);fill-opacity:1;" d="M 23.09375 27.84375 C 23.328125 27.929688 23.402344 28.097656 23.3125 28.34375 C 23.226562 28.417969 23.15625 28.5 23.09375 28.59375 C 23.195312 28.777344 23.320312 28.945312 23.46875 29.09375 C 23.363281 29.175781 23.261719 29.175781 23.15625 29.09375 C 23.054688 28.90625 22.929688 28.742188 22.78125 28.59375 C 22.761719 28.605469 22.738281 28.613281 22.71875 28.625 C 22.761719 28.777344 22.804688 28.933594 22.84375 29.09375 C 22.71875 29.175781 22.59375 29.175781 22.46875 29.09375 C 22.550781 28.695312 22.550781 28.300781 22.46875 27.90625 C 22.664062 27.84375 22.871094 27.824219 23.09375 27.84375 Z M 23.09375 27.84375 "/>
<path style=" stroke:none;fill-rule:evenodd;fill:rgb(4.313726%,3.921569%,3.137255%);fill-opacity:1;" d="M 22.78125 27.96875 C 23.089844 27.972656 23.171875 28.121094 23.03125 28.40625 C 22.949219 28.40625 22.863281 28.40625 22.78125 28.40625 C 22.78125 28.261719 22.78125 28.113281 22.78125 27.96875 Z M 22.78125 27.96875 "/>
<path style=" stroke:none;fill-rule:evenodd;fill:rgb(38.82353%,32.549021%,20%);fill-opacity:1;" d="M 11.53125 27.96875 C 11.550781 28.386719 11.53125 28.804688 11.46875 29.21875 C 11.429688 29.210938 11.410156 29.191406 11.40625 29.15625 C 11.449219 28.761719 11.488281 28.363281 11.53125 27.96875 Z M 11.53125 27.96875 "/>
<path style=" stroke:none;fill-rule:evenodd;fill:rgb(87.450981%,72.941178%,41.960785%);fill-opacity:1;" d="M 20.96875 28.03125 C 20.851562 27.980469 20.726562 27.957031 20.59375 27.96875 C 20.59375 28.113281 20.59375 28.261719 20.59375 28.40625 C 20.699219 28.40625 20.800781 28.40625 20.90625 28.40625 C 20.921875 28.480469 20.898438 28.542969 20.84375 28.59375 C 20.765625 28.546875 20.683594 28.527344 20.59375 28.53125 C 20.53125 28.683594 20.511719 28.851562 20.53125 29.03125 C 20.699219 29.019531 20.867188 29.03125 21.03125 29.0625 C 20.789062 29.074219 20.5625 29.105469 20.34375 29.15625 C 20.308594 29.152344 20.289062 29.132812 20.28125 29.09375 C 20.359375 28.90625 20.398438 28.710938 20.40625 28.5 C 20.398438 28.285156 20.359375 28.085938 20.28125 27.90625 C 20.519531 27.84375 20.769531 27.824219 21.03125 27.84375 C 21.046875 27.925781 21.023438 27.988281 20.96875 28.03125 Z M 20.96875 28.03125 "/>
<path style=" stroke:none;fill-rule:evenodd;fill:rgb(42.745098%,36.078432%,22.352941%);fill-opacity:1;" d="M 11.34375 27.96875 C 11.425781 28.210938 11.425781 28.460938 11.34375 28.71875 C 11.304688 28.710938 11.285156 28.691406 11.28125 28.65625 C 11.34375 28.441406 11.363281 28.210938 11.34375 27.96875 Z M 11.34375 27.96875 "/>
<path style=" stroke:none;fill-rule:evenodd;fill:rgb(34.509805%,30.19608%,20%);fill-opacity:1;" d="M 12.96875 27.96875 C 12.988281 28.386719 12.96875 28.804688 12.90625 29.21875 C 12.867188 29.210938 12.847656 29.191406 12.84375 29.15625 C 12.886719 28.761719 12.925781 28.363281 12.96875 27.96875 Z M 12.96875 27.96875 "/>
<path style=" stroke:none;fill-rule:evenodd;fill:rgb(50.980395%,41.568628%,24.313726%);fill-opacity:1;" d="M 22.78125 27.96875 C 22.78125 28.113281 22.78125 28.261719 22.78125 28.40625 C 22.863281 28.40625 22.949219 28.40625 23.03125 28.40625 C 22.941406 28.464844 22.839844 28.488281 22.71875 28.46875 C 22.699219 28.289062 22.71875 28.121094 22.78125 27.96875 Z M 22.78125 27.96875 "/>
<path style=" stroke:none;fill-rule:evenodd;fill:rgb(85.09804%,70.588237%,40.392157%);fill-opacity:1;" d="M 26.21875 27.96875 C 26.175781 28.363281 26.136719 28.761719 26.09375 29.15625 C 25.863281 28.863281 25.632812 28.570312 25.40625 28.28125 C 25.402344 28.246094 25.382812 28.226562 25.34375 28.21875 C 25.261719 28.5 25.261719 28.769531 25.34375 29.03125 C 25.378906 29.035156 25.398438 29.054688 25.40625 29.09375 C 25.300781 29.175781 25.199219 29.175781 25.09375 29.09375 C 25.101562 29.054688 25.121094 29.035156 25.15625 29.03125 C 25.21875 28.667969 25.238281 28.292969 25.21875 27.90625 C 25.28125 27.90625 25.34375 27.90625 25.40625 27.90625 C 25.59375 28.152344 25.78125 28.402344 25.96875 28.65625 C 25.972656 28.691406 25.992188 28.710938 26.03125 28.71875 C 26.113281 28.460938 26.113281 28.210938 26.03125 27.96875 C 25.996094 27.964844 25.976562 27.945312 25.96875 27.90625 C 26.066406 27.835938 26.171875 27.824219 26.28125 27.875 C 26.246094 27.898438 26.226562 27.929688 26.21875 27.96875 Z M 26.21875 27.96875 "/>
<path style=" stroke:none;fill-rule:evenodd;fill:rgb(83.137256%,69.411767%,40.392157%);fill-opacity:1;" d="M 13.78125 27.78125 C 13.84375 27.777344 13.894531 27.796875 13.9375 27.84375 C 14.042969 28.175781 14.144531 28.511719 14.25 28.84375 C 14.289062 28.957031 14.363281 29.039062 14.46875 29.09375 C 14.300781 29.175781 14.136719 29.175781 13.96875 29.09375 C 14.097656 29.03125 14.117188 28.949219 14.03125 28.84375 C 13.871094 28.78125 13.703125 28.761719 13.53125 28.78125 C 13.53125 28.90625 13.53125 29.03125 13.53125 29.15625 C 13.417969 29.175781 13.316406 29.152344 13.21875 29.09375 C 13.441406 28.671875 13.628906 28.234375 13.78125 27.78125 Z M 13.78125 27.78125 "/>
<path style=" stroke:none;fill-rule:evenodd;fill:rgb(14.509805%,11.764706%,8.235294%);fill-opacity:1;" d="M 13.71875 28.21875 C 13.875 28.289062 13.9375 28.414062 13.90625 28.59375 C 13.824219 28.59375 13.738281 28.59375 13.65625 28.59375 C 13.65625 28.464844 13.679688 28.339844 13.71875 28.21875 Z M 13.71875 28.21875 "/>
<path style=" stroke:none;fill-rule:evenodd;fill:rgb(84.313726%,70.588237%,40.392157%);fill-opacity:1;" d="M 14.96875 27.96875 C 14.910156 28.101562 14.886719 28.246094 14.90625 28.40625 C 15.113281 28.40625 15.324219 28.40625 15.53125 28.40625 C 15.550781 28.246094 15.527344 28.101562 15.46875 27.96875 C 15.488281 27.898438 15.539062 27.855469 15.625 27.84375 C 15.710938 27.855469 15.761719 27.898438 15.78125 27.96875 C 15.738281 28.132812 15.71875 28.3125 15.71875 28.5 C 15.726562 28.710938 15.765625 28.90625 15.84375 29.09375 C 15.699219 29.175781 15.550781 29.175781 15.40625 29.09375 C 15.414062 29.054688 15.433594 29.035156 15.46875 29.03125 C 15.53125 28.878906 15.550781 28.710938 15.53125 28.53125 C 15.324219 28.53125 15.113281 28.53125 14.90625 28.53125 C 14.886719 28.710938 14.90625 28.878906 14.96875 29.03125 C 15.003906 29.035156 15.023438 29.054688 15.03125 29.09375 C 14.886719 29.175781 14.738281 29.175781 14.59375 29.09375 C 14.671875 28.90625 14.710938 28.710938 14.71875 28.5 C 14.707031 28.324219 14.699219 28.144531 14.6875 27.96875 C 14.65625 27.9375 14.625 27.90625 14.59375 27.875 C 14.738281 27.832031 14.886719 27.832031 15.03125 27.875 C 14.996094 27.898438 14.976562 27.929688 14.96875 27.96875 Z M 14.96875 27.96875 "/>
<path style=" stroke:none;fill-rule:evenodd;fill:rgb(29.803923%,23.529412%,14.509805%);fill-opacity:1;" d="M 14.96875 27.96875 C 14.96875 28.09375 14.96875 28.21875 14.96875 28.34375 C 15.136719 28.34375 15.300781 28.34375 15.46875 28.34375 C 15.46875 28.21875 15.46875 28.09375 15.46875 27.96875 C 15.527344 28.101562 15.550781 28.246094 15.53125 28.40625 C 15.324219 28.40625 15.113281 28.40625 14.90625 28.40625 C 14.886719 28.246094 14.910156 28.101562 14.96875 27.96875 Z M 14.96875 27.96875 "/>
<path style=" stroke:none;fill-rule:evenodd;fill:rgb(37.64706%,32.156864%,20.392157%);fill-opacity:1;" d="M 26.03125 27.96875 C 26.113281 28.210938 26.113281 28.460938 26.03125 28.71875 C 25.992188 28.710938 25.972656 28.691406 25.96875 28.65625 C 26.03125 28.441406 26.050781 28.210938 26.03125 27.96875 Z M 26.03125 27.96875 "/>
<path style=" stroke:none;fill-rule:evenodd;fill:rgb(86.274511%,72.549021%,42.352942%);fill-opacity:1;" d="M 21.96875 27.84375 C 22.117188 27.90625 22.179688 28.023438 22.15625 28.1875 C 22.144531 28.261719 22.136719 28.332031 22.125 28.40625 C 22.03125 28.445312 21.960938 28.507812 21.90625 28.59375 C 22.03125 28.761719 22.15625 28.925781 22.28125 29.09375 C 22.109375 29.183594 21.976562 29.140625 21.875 28.96875 C 21.816406 28.832031 21.746094 28.707031 21.65625 28.59375 C 21.566406 28.773438 21.589844 28.941406 21.71875 29.09375 C 21.574219 29.175781 21.425781 29.175781 21.28125 29.09375 C 21.425781 28.707031 21.445312 28.3125 21.34375 27.90625 C 21.539062 27.84375 21.746094 27.824219 21.96875 27.84375 Z M 21.96875 27.84375 "/>
<path style=" stroke:none;fill-rule:evenodd;fill:rgb(12.54902%,10.588235%,7.843138%);fill-opacity:1;" d="M 21.59375 27.96875 C 21.96875 27.980469 22.050781 28.136719 21.84375 28.4375 C 21.761719 28.46875 21.679688 28.480469 21.59375 28.46875 C 21.59375 28.300781 21.59375 28.136719 21.59375 27.96875 Z M 21.59375 27.96875 "/>
<path style=" stroke:none;fill-rule:evenodd;fill:rgb(60.000002%,50.196081%,29.019609%);fill-opacity:1;" d="M 25.40625 27.90625 C 25.34375 27.90625 25.28125 27.90625 25.21875 27.90625 C 25.238281 28.292969 25.21875 28.667969 25.15625 29.03125 C 25.167969 28.675781 25.15625 28.324219 25.125 27.96875 C 24.984375 27.859375 25.007812 27.796875 25.1875 27.78125 C 25.292969 27.773438 25.367188 27.816406 25.40625 27.90625 Z M 25.40625 27.90625 "/>
<path style=" stroke:none;fill-rule:evenodd;fill:rgb(49.019608%,38.82353%,22.352941%);fill-opacity:1;" d="M 25.40625 28.28125 C 25.34375 28.519531 25.324219 28.769531 25.34375 29.03125 C 25.261719 28.769531 25.261719 28.5 25.34375 28.21875 C 25.382812 28.226562 25.402344 28.246094 25.40625 28.28125 Z M 25.40625 28.28125 "/>
<path style=" stroke:none;fill-rule:evenodd;fill:rgb(81.176472%,67.450982%,38.82353%);fill-opacity:1;" d="M 9.59375 27.78125 C 9.65625 27.777344 9.707031 27.796875 9.75 27.84375 C 9.882812 28.277344 10.0625 28.695312 10.28125 29.09375 C 10.136719 29.175781 9.988281 29.175781 9.84375 29.09375 C 9.894531 28.996094 9.914062 28.890625 9.90625 28.78125 C 9.734375 28.761719 9.566406 28.78125 9.40625 28.84375 C 9.324219 28.925781 9.324219 29.011719 9.40625 29.09375 C 9 29.191406 8.945312 29.109375 9.25 28.84375 C 9.363281 28.488281 9.480469 28.132812 9.59375 27.78125 Z M 9.59375 27.78125 "/>
<path style=" stroke:none;fill-rule:evenodd;fill:rgb(10.196079%,8.627451%,6.27451%);fill-opacity:1;" d="M 9.53125 28.21875 C 9.664062 28.300781 9.726562 28.425781 9.71875 28.59375 C 9.625 28.609375 9.542969 28.589844 9.46875 28.53125 C 9.519531 28.433594 9.539062 28.328125 9.53125 28.21875 Z M 9.53125 28.21875 "/>
<path style=" stroke:none;fill-rule:evenodd;fill:rgb(29.803923%,23.921569%,15.294118%);fill-opacity:1;" d="M 15.46875 29.03125 C 15.46875 28.886719 15.46875 28.738281 15.46875 28.59375 C 15.300781 28.59375 15.136719 28.59375 14.96875 28.59375 C 14.96875 28.738281 14.96875 28.886719 14.96875 29.03125 C 14.90625 28.878906 14.886719 28.710938 14.90625 28.53125 C 15.113281 28.53125 15.324219 28.53125 15.53125 28.53125 C 15.550781 28.710938 15.53125 28.878906 15.46875 29.03125 Z M 15.46875 29.03125 "/>
<path style=" stroke:none;fill-rule:evenodd;fill:rgb(49.019608%,39.215687%,23.137255%);fill-opacity:1;" d="M 10.71875 28.28125 C 10.65625 28.519531 10.636719 28.769531 10.65625 29.03125 C 10.574219 28.769531 10.574219 28.5 10.65625 28.21875 C 10.695312 28.226562 10.714844 28.246094 10.71875 28.28125 Z M 10.71875 28.28125 "/>
<path style=" stroke:none;fill-rule:evenodd;fill:rgb(83.137256%,70.19608%,41.176471%);fill-opacity:1;" d="M 12.09375 27.84375 C 12.296875 28.121094 12.515625 28.390625 12.75 28.65625 C 12.796875 28.402344 12.789062 28.152344 12.71875 27.90625 C 12.816406 27.835938 12.921875 27.824219 13.03125 27.875 C 12.996094 27.898438 12.976562 27.929688 12.96875 27.96875 C 12.925781 28.363281 12.886719 28.761719 12.84375 29.15625 C 12.617188 28.867188 12.386719 28.574219 12.15625 28.28125 C 12.152344 28.246094 12.132812 28.226562 12.09375 28.21875 C 12.011719 28.476562 12.011719 28.726562 12.09375 28.96875 C 12.113281 29.007812 12.132812 29.050781 12.15625 29.09375 C 12.050781 29.175781 11.949219 29.175781 11.84375 29.09375 C 11.925781 28.695312 11.925781 28.300781 11.84375 27.90625 C 11.910156 27.847656 11.992188 27.828125 12.09375 27.84375 Z M 12.09375 27.84375 "/>
<path style=" stroke:none;fill-rule:evenodd;fill:rgb(34.117648%,27.450982%,16.862746%);fill-opacity:1;" d="M 12.15625 28.28125 C 12.09375 28.496094 12.074219 28.726562 12.09375 28.96875 C 12.011719 28.726562 12.011719 28.476562 12.09375 28.21875 C 12.132812 28.226562 12.152344 28.246094 12.15625 28.28125 Z M 12.15625 28.28125 "/>
<path style=" stroke:none;fill-rule:evenodd;fill:rgb(79.215688%,65.882355%,38.431373%);fill-opacity:1;" d="M 23.96875 28.78125 C 23.910156 28.871094 23.886719 28.972656 23.90625 29.09375 C 23.824219 29.078125 23.761719 29.101562 23.71875 29.15625 C 23.683594 29.152344 23.664062 29.132812 23.65625 29.09375 C 23.828125 28.648438 24.015625 28.210938 24.21875 27.78125 C 24.421875 28.214844 24.632812 28.652344 24.84375 29.09375 C 24.675781 29.175781 24.511719 29.175781 24.34375 29.09375 C 24.46875 29.015625 24.488281 28.921875 24.40625 28.8125 C 24.261719 28.78125 24.117188 28.769531 23.96875 28.78125 Z M 23.96875 28.78125 "/>
<path style=" stroke:none;fill-rule:evenodd;fill:rgb(11.372549%,9.411765%,6.666667%);fill-opacity:1;" d="M 24.09375 28.21875 C 24.25 28.289062 24.3125 28.414062 24.28125 28.59375 C 24.1875 28.609375 24.105469 28.589844 24.03125 28.53125 C 24.082031 28.433594 24.101562 28.328125 24.09375 28.21875 Z M 24.09375 28.21875 "/>
<path style=" stroke:none;fill-rule:evenodd;fill:rgb(80.784315%,67.450982%,39.215687%);fill-opacity:1;" d="M 17.03125 27.96875 C 17.113281 27.96875 17.15625 28.011719 17.15625 28.09375 C 16.953125 28.757812 17.183594 29.070312 17.84375 29.03125 C 17.472656 29.242188 17.152344 29.179688 16.875 28.84375 C 16.832031 28.613281 16.832031 28.386719 16.875 28.15625 C 16.898438 28.066406 16.949219 28.003906 17.03125 27.96875 Z M 17.03125 27.96875 "/>
<path style=" stroke:none;fill-rule:evenodd;fill:rgb(83.92157%,73.725492%,43.529412%);fill-opacity:1;" d="M 18.03125 28.90625 C 18.113281 28.90625 18.199219 28.90625 18.28125 28.90625 C 18.296875 29.023438 18.257812 29.105469 18.15625 29.15625 C 18.054688 29.105469 18.015625 29.023438 18.03125 28.90625 Z M 18.03125 28.90625 "/>
<path style=" stroke:none;fill-rule:evenodd;fill:rgb(84.705883%,70.19608%,40.392157%);fill-opacity:1;" d="M 19.84375 27.84375 C 20.09375 28.074219 20.09375 28.316406 19.84375 28.5625 C 19.699219 28.59375 19.554688 28.605469 19.40625 28.59375 C 19.382812 28.777344 19.421875 28.945312 19.53125 29.09375 C 19.40625 29.175781 19.28125 29.175781 19.15625 29.09375 C 19.238281 28.695312 19.238281 28.300781 19.15625 27.90625 C 19.371094 27.84375 19.601562 27.824219 19.84375 27.84375 Z M 19.84375 27.84375 "/>
<path style=" stroke:none;fill-rule:evenodd;fill:rgb(39.215687%,30.980393%,18.431373%);fill-opacity:1;" d="M 19.46875 27.96875 C 19.46875 28.113281 19.46875 28.261719 19.46875 28.40625 C 19.574219 28.40625 19.675781 28.40625 19.78125 28.40625 C 19.671875 28.464844 19.546875 28.488281 19.40625 28.46875 C 19.386719 28.289062 19.40625 28.121094 19.46875 27.96875 Z M 19.46875 27.96875 "/>
<path style=" stroke:none;fill-rule:evenodd;fill:rgb(5.882353%,5.098039%,4.313726%);fill-opacity:1;" d="M 19.46875 27.96875 C 19.828125 27.9375 19.929688 28.085938 19.78125 28.40625 C 19.675781 28.40625 19.574219 28.40625 19.46875 28.40625 C 19.46875 28.261719 19.46875 28.113281 19.46875 27.96875 Z M 19.46875 27.96875 "/>
<path style=" stroke:none;fill-rule:evenodd;fill:rgb(33.333334%,28.235295%,18.82353%);fill-opacity:1;" d="M 26.21875 27.96875 C 26.238281 28.386719 26.21875 28.804688 26.15625 29.21875 C 26.117188 29.210938 26.097656 29.191406 26.09375 29.15625 C 26.136719 28.761719 26.175781 28.363281 26.21875 27.96875 Z M 26.21875 27.96875 "/>
<path style=" stroke:none;fill-rule:evenodd;fill:rgb(54.901963%,48.235294%,28.627452%);fill-opacity:1;" d="M 7.78125 29.03125 C 7.863281 29.113281 7.949219 29.113281 8.03125 29.03125 C 8.085938 29.023438 8.128906 29.042969 8.15625 29.09375 C 8.011719 29.175781 7.863281 29.175781 7.71875 29.09375 C 7.726562 29.054688 7.746094 29.035156 7.78125 29.03125 Z M 7.78125 29.03125 "/>
<path style=" stroke:none;fill-rule:evenodd;fill:rgb(64.313728%,54.901963%,33.333334%);fill-opacity:1;" d="M 20.59375 28.53125 C 20.59375 28.675781 20.59375 28.824219 20.59375 28.96875 C 20.746094 28.980469 20.890625 28.960938 21.03125 28.90625 C 21.089844 28.980469 21.109375 29.0625 21.09375 29.15625 C 20.84375 29.15625 20.59375 29.15625 20.34375 29.15625 C 20.5625 29.105469 20.789062 29.074219 21.03125 29.0625 C 20.867188 29.03125 20.699219 29.019531 20.53125 29.03125 C 20.511719 28.851562 20.53125 28.683594 20.59375 28.53125 Z M 20.59375 28.53125 "/>
<path style=" stroke:none;fill-rule:evenodd;fill:rgb(53.333336%,45.09804%,27.058825%);fill-opacity:1;" d="M 23.96875 28.78125 C 23.96875 28.90625 23.96875 29.03125 23.96875 29.15625 C 23.886719 29.15625 23.800781 29.15625 23.71875 29.15625 C 23.761719 29.101562 23.824219 29.078125 23.90625 29.09375 C 23.886719 28.972656 23.910156 28.871094 23.96875 28.78125 Z M 23.96875 28.78125 "/>
</g>
</svg>
